<svg width="276" height="171" viewBox="0 0 276 171" fill="none" xmlns="http://www.w3.org/2000/svg">
<g clip-path="url(#clip0_1113_12120)">
<path d="M283.69 123.893L284.487 124.849L282.947 125.274L281.672 125.859L278.539 126.284L275.724 126.974L274.45 128.461L275.459 129.896L276.202 131.596L275.14 133.03L275.565 134.358L275.087 135.579L272.325 135.473L273.972 137.704L272.325 138.607L271.582 140.626L272.166 142.698L271.21 143.654L270.095 143.335L267.971 143.813L267.864 144.716H265.687L264.466 146.682L264.891 149.55L261.386 150.984L259.314 150.666L258.836 151.409L257.031 150.984L254.216 151.515L249.118 149.762L251.189 146.682L250.605 144.504L248.321 143.919L247.684 141.741L246.25 139.032L247.1 137.173L245.772 136.642L246.038 134.145L246.356 129.896L249.49 131.224L251.561 130.746L251.773 129.205L253.898 128.727L255.278 127.665L255.172 124.956L257.403 124.265L257.562 123.096L259.102 123.999L259.952 124.106H261.545L263.828 124.849L264.784 125.221L266.59 124.159L267.705 124.796L268.183 123.256L269.883 123.309L270.201 122.831L270.095 121.45L270.998 120.281L272.75 121.025L272.697 122.087L273.6 122.246L274.078 125.115L275.512 126.23L276.308 125.487L277.477 125.168L278.804 123.628L280.822 123.893H283.69Z" stroke="#465C58" stroke-width="0.4" stroke-linecap="round" stroke-linejoin="round"/>
<path d="M127.027 106.045L127.239 106.683L127.983 106.364L128.62 107.267L129.31 107.639L129.629 108.861L129.363 110.029L129.894 111.463L131.116 112.26L131.169 113.163L130.266 113.641L130.213 114.757L129.045 116.404L128.567 116.191L128.461 115.447L126.814 114.279L126.443 112.685L126.496 110.348L126.761 109.339L126.283 108.807L126.018 107.692L127.027 106.045Z" stroke="#465C58" stroke-width="0.4" stroke-linecap="round" stroke-linejoin="round"/>
<path d="M237.594 163.786L238.284 166.495H236.797V168.726L237.381 169.204L236.107 169.895L236.213 171.276L235.523 172.657V174.038L234.992 174.782L226.017 173.082L224.583 169.576L224.424 168.832L224.901 168.62L225.114 169.576L227.344 169.045L229.787 169.151L231.593 169.257L233.345 166.92L235.31 164.742L236.903 162.617L237.594 163.786Z" stroke="#465C58" stroke-width="0.4" stroke-linecap="round" stroke-linejoin="round"/>
<path d="M202.862 119.325L201.906 119.431L200.419 117.466L200.313 116.934H199.092L198.083 116.031L197.552 116.084L196.277 115.128L194.047 114.278L193.994 112.632L193.303 111.463L197.021 110.932L197.764 111.782L198.933 112.366L198.561 113.216L200.26 114.385L199.676 115.5L201.057 116.403L202.384 116.934L202.862 119.325Z" stroke="#465C58" stroke-width="0.4" stroke-linecap="round" stroke-linejoin="round"/>
<path d="M117.786 86.2847L117.627 86.7097L117.999 87.8252L117.892 89.2063H116.405L116.99 89.95L116.299 92.0748L115.821 92.6591L113.485 92.7122L112.21 93.509L109.98 93.2434L106.103 92.3404L105.413 91.2249L102.81 91.8092L102.545 92.4466L100.898 91.9685L99.5177 91.8623L98.2963 91.2249L98.668 90.4281L98.5618 89.8437L99.3053 89.6844L100.739 90.5874L101.058 89.6844L103.394 89.8437L105.253 89.2594L106.528 89.3657L107.431 90.0562L107.643 89.4719L107.112 87.294L108.015 86.869L108.864 85.3286L110.882 86.4441L112.263 85.063L113.166 84.7974L115.29 85.8066L116.512 85.6473L117.786 86.2847Z" stroke="#465C58" stroke-width="0.4" stroke-linecap="round" stroke-linejoin="round"/>
<path d="M201.907 119.431L199.889 118.953L198.189 117.413L197.552 116.085L198.083 116.031L199.092 116.935H200.313L200.42 117.466L201.907 119.431Z" stroke="#465C58" stroke-width="0.4" stroke-linecap="round" stroke-linejoin="round"/>
<path d="M205.252 110.401L206.58 109.019L208.439 110.772L210.351 113.216L211.678 113.375L212.687 114.278L210.457 114.544L210.51 117.2L210.297 118.369L209.395 119.165L209.819 120.812L209.129 121.025L207.058 119.218L207.695 117.572L206.686 116.562L205.677 116.828L202.863 119.325L202.385 116.934L201.057 116.403L199.676 115.5L200.26 114.385L198.561 113.216L198.933 112.366L197.764 111.782L197.021 110.932L197.605 110.347L199.835 111.357L201.376 111.516L201.694 111.144L199.942 109.285L200.579 108.86L201.376 108.966L203.659 110.985L204.934 111.25L205.252 110.401Z" stroke="#465C58" stroke-width="0.4" stroke-linecap="round" stroke-linejoin="round"/>
<path d="M89.0558 79.0067L88.8433 81.2377L88.153 81.3439L87.9406 83.2031L85.6039 81.6627L84.2762 81.9283L82.4175 80.3878L81.1429 79.0598L79.9746 79.0067L79.5497 77.838L81.6209 77.2006L83.5327 77.4662L85.9225 76.7756L87.5688 78.2099L89.0558 79.0067Z" stroke="#465C58" stroke-width="0.4" stroke-linecap="round" stroke-linejoin="round"/>
<path d="M150.712 102.645L149.491 104.026L148.8 106.417L149.916 108.329L147.473 107.904L144.817 108.966L144.977 110.666L142.534 110.985L140.463 109.763L138.338 110.719L136.32 110.613L135.896 108.382L134.409 107.267L134.78 106.842L134.462 106.417L134.78 105.354L135.736 104.292L134.249 102.858L133.878 101.583L134.462 100.839L135.418 102.22L136.427 102.008L138.551 102.486L142.587 102.698L143.808 101.848L146.942 101.052L149.066 102.273L150.712 102.645Z" stroke="#465C58" stroke-width="0.4" stroke-linecap="round" stroke-linejoin="round"/>
<path d="M124.372 98.7671L125.381 98.7139L124.796 100.201L126.23 101.529L125.965 103.07L125.381 103.229L124.903 103.548L124.053 104.345L123.84 106.204L121.291 104.929L120.176 103.495L119.061 102.751L117.733 101.476L117.043 100.467L115.609 98.8733L116.034 97.4922L117.096 98.289L117.627 97.5453L118.848 97.4922L121.238 98.0765L123.097 98.0234L124.372 98.7671Z" stroke="#465C58" stroke-width="0.4" stroke-linecap="round" stroke-linejoin="round"/>
<path d="M155.492 71.3578L153.421 71.2515L152.996 71.5703L153.792 72.6327L154.854 74.7574L152.677 74.9168L151.987 75.6605L152.146 77.3072L151.031 76.9885L148.747 77.1478L147.951 76.351L147.048 76.9353L146.039 76.4573L143.968 76.4042L140.941 75.6074L138.338 75.3418L136.32 75.448L135.046 76.2979L133.824 76.4573L133.559 74.9699L132.55 73.4826L134.037 72.792L133.824 71.5171L132.922 70.2954L132.603 68.8611H135.099L137.648 67.6394L137.914 65.8333L139.825 64.7709L139.294 63.3367L140.728 62.8055L143.171 61.5837L145.986 62.3805L146.464 63.1773L147.738 62.8055L150.287 63.5492L150.871 65.0896L150.5 65.9396L152.518 68.0643L153.633 68.6487V69.233L155.439 69.8173L156.341 70.6672L155.492 71.3578Z" stroke="#465C58" stroke-width="0.4" stroke-linecap="round" stroke-linejoin="round"/>
<path d="M98.5618 89.8437L98.668 90.4281L98.2963 91.2249L99.5177 91.8623L100.898 91.9685L100.739 93.2965L99.6239 93.8808L97.6059 93.4559L97.0748 94.7839L95.8002 94.8901L95.3223 94.3589L93.8884 95.5276L92.5608 95.6869L91.3925 94.9432L90.4365 93.509L89.162 94.0402V92.4997L91.0738 90.6405L90.9676 89.7906L92.189 90.1093L92.8794 89.525H95.1099L95.641 88.8345L98.5618 89.8437Z" stroke="#465C58" stroke-width="0.4" stroke-linecap="round" stroke-linejoin="round"/>
<path d="M111.998 77.9977L113.325 79.0601L115.29 79.3257L115.184 80.2287L116.671 80.9193L116.99 80.0694L118.795 80.4412L119.167 81.5036L121.132 81.663L122.513 83.3097H121.716L121.345 83.894L120.76 84.0534L120.654 84.797L120.176 84.9564L120.123 85.2751L119.273 85.5938L118.105 85.5407L117.786 86.2844L116.512 85.6469L115.29 85.8063L113.166 84.797L112.263 85.0626L110.883 86.4437L108.865 85.3282L107.271 83.9471L105.891 83.1503L105.519 81.7161L104.988 80.7599L106.793 80.0694L107.696 79.2195L109.555 78.582L110.139 77.9446L110.829 78.3164L111.998 77.9977Z" stroke="#465C58" stroke-width="0.4" stroke-linecap="round" stroke-linejoin="round"/>
<path d="M108.918 69.3391L109.661 70.9858L109.024 71.8888L110.033 73.0043L110.829 74.7573L110.723 75.9259L111.998 77.9976L110.829 78.3163L110.139 77.9445L109.555 78.5819L107.696 79.2193L106.793 80.0693L104.988 80.7598L105.519 81.716L105.89 83.1502L107.271 83.947L108.864 85.3281L108.015 86.8686L107.112 87.2935L107.643 89.4715L107.431 90.0558L106.528 89.3652L105.253 89.259L103.394 89.8433L101.058 89.6839L100.739 90.587L99.3053 89.6839L98.5618 89.8433L95.641 88.834L95.1099 89.5246H92.8795L93.0919 87.1342L94.3664 84.9032L90.5428 84.2657L89.2682 83.4158L89.3744 81.9816L88.8434 81.2379L89.0558 79.0069L88.4716 75.5541H90.0117L90.649 74.3323L91.127 71.3576L90.649 70.2421L91.0738 69.5515L93.1981 69.3922L93.7292 70.0827L95.3755 68.4892L94.6851 67.2674L94.4726 65.4613L96.4376 65.8863L97.9777 65.4082L98.137 66.63L100.739 67.3736L100.792 68.5423L103.288 67.9048L104.669 67.0549L107.643 68.3298L108.918 69.3391Z" stroke="#465C58" stroke-width="0.4" stroke-linecap="round" stroke-linejoin="round"/>
<path d="M104.775 63.3896L103.501 65.9925L100.739 64.1333L100.261 62.8053L103.872 61.7429L104.775 63.3896Z" stroke="#465C58" stroke-width="0.4" stroke-linecap="round" stroke-linejoin="round"/>
<path d="M97.9777 65.408L96.4376 65.886L94.4726 65.4611L93.3574 63.655L93.145 60.4147L93.4636 59.5117L94.154 58.5555L96.2782 58.3962L97.1279 57.4931L99.0398 56.5901V58.2368L98.4025 59.2992L98.7743 60.1491L100.155 60.6272L99.624 61.8489L98.8805 61.5302L97.2342 63.8144L97.9777 65.408Z" stroke="#465C58" stroke-width="0.4" stroke-linecap="round" stroke-linejoin="round"/>
<path d="M96.7564 125.487L96.2253 127.24L96.7564 130.48L96.1722 133.295L94.4728 135.208L94.7915 137.757L97.1812 139.829L97.2343 140.626L99.04 142.007L100.421 148.116L101.43 151.144L101.642 152.737L101.217 155.499L101.43 157.093L101.111 158.952L101.43 161.077L100.261 162.511L102.067 165.008L102.173 166.442L103.288 168.354L104.616 167.717L107.006 169.31L108.334 171.435L98.3495 177.969L89.8525 184.662L85.7103 186.149L82.4177 186.521L82.3646 184.343L80.9838 183.759L79.1251 182.803L78.4347 181.209L68.5038 173.773L58.6261 166.336L47.7393 158.049L47.7924 157.412L47.8455 157.199L47.8986 153.162L52.6251 150.612L55.4928 150.081L57.8826 149.178L58.9978 147.478L62.3966 146.15L62.5559 143.601L64.2022 143.282L65.5299 142.06L69.3004 141.476L69.8315 140.148L69.088 139.404L68.079 135.792L67.9197 133.72L66.9107 131.542L69.6191 129.683L72.6992 129.099L74.4517 127.718L77.1601 126.655L81.9397 126.071L86.6131 125.805L88.0469 126.283L90.6491 124.955L93.6762 124.902L94.8445 125.699L96.7564 125.487Z" stroke="#465C58" stroke-width="0.4" stroke-linecap="round" stroke-linejoin="round"/>
<path d="M171.689 145.035L173.76 150.028L174.132 150.878L173.442 152.259L173.07 154.809L172.433 156.615L171.795 157.199L170.733 156.084L169.299 154.596L166.803 149.709L166.538 150.028L168.025 153.587L170.096 157.04L172.698 162.352L173.92 164.211L174.982 166.123L177.849 169.895L177.318 170.479L177.531 172.71L181.142 175.791L181.726 176.482H169.99H158.572H146.729L146.198 163.892L145.508 151.781L144.446 149.019L145.03 146.947L144.499 145.46L145.401 143.813L149.225 143.76L152.093 144.663L155.014 145.672L156.395 146.203L158.519 145.141L159.634 144.185L162.13 143.866L164.201 144.291L165.157 145.991L165.741 144.875L168.078 145.672L170.361 145.885L171.689 145.035Z" stroke="#465C58" stroke-width="0.4" stroke-linecap="round" stroke-linejoin="round"/>
<path d="M140.675 51.1188L141.153 51.65L139.772 53.4561L141.047 56.4308L140.197 57.4401L138.179 57.3869L135.842 56.2183L134.727 55.8465L132.709 56.3777L132.656 54.5185L131.859 54.9434L130.107 53.8279L129.576 52.0218L132.497 51.1188L135.471 50.6938L138.179 51.1719L140.675 51.1188Z" stroke="#465C58" stroke-width="0.4" stroke-linecap="round" stroke-linejoin="round"/>
<path d="M135.577 22.1687L135.789 24.1873L139.666 26.1527L138.126 28.3837L141.578 31.7303L140.675 34.28L143.277 36.5111L142.799 38.5296L146.729 40.6013L146.251 42.1418L144.446 43.9478L140.197 47.8787L135.949 48.1443L131.912 49.2598L128.142 49.9504L126.442 48.2505L123.946 47.2413L124 44.1603L122.406 41.3981L123.256 39.592L125.009 37.7328L129.682 34.4394L131.063 33.802L130.585 32.5271L127.133 31.146L126.177 29.9773L125.221 25.4622L121.397 23.4967L118.211 22.0625L119.379 21.3188L122.088 22.8062L124.902 22.6999L127.398 23.3905L129.204 22.1156L129.788 19.9908L132.921 19.0347L136.002 20.1502L135.577 22.1687Z" stroke="#465C58" stroke-width="0.4" stroke-linecap="round" stroke-linejoin="round"/>
<path d="M57.2982 68.9677L55.4395 68.3303L53.8463 68.3834L54.4836 66.6304L54.0057 64.9306L56.1299 64.7712L58.7321 66.7898L57.2982 68.9677Z" stroke="#465C58" stroke-width="0.4" stroke-linecap="round" stroke-linejoin="round"/>
<path d="M65.7422 53.7219L63.0338 57.1747L65.5298 56.7497H68.2382L67.5478 59.3526L65.2643 62.2211L67.8665 62.3804L68.0258 62.7523L70.2562 66.5238L71.9556 67.055L73.4957 70.7734L74.2392 72.0482L77.3725 72.6326L77.0539 74.7574L75.7793 75.7135L76.7883 77.4133L74.4516 79.1132L70.9997 79.06L66.5388 80.0162L65.3705 79.3256L63.618 80.8661L61.2282 80.4943L59.3164 81.7692L57.9887 81.1317L61.8655 77.6789L64.2022 76.9353L60.1661 76.4041L59.4757 75.0761L62.1841 74.0668L60.8565 72.3138L61.3875 70.189L65.1581 70.5078L65.5829 68.5955L63.9366 66.63L63.8835 66.5769L60.8565 65.9926L60.2723 65.1427L61.2282 63.7084L60.4316 62.8054L59.0508 64.3459L58.9978 61.2118L57.8294 59.6182L58.8384 56.3248L60.8565 53.775L62.7683 53.9875L65.7422 53.7219Z" stroke="#465C58" stroke-width="0.4" stroke-linecap="round" stroke-linejoin="round"/>
<path d="M194.843 105.992L197.552 106.683L198.667 108.064L200.579 108.861L199.942 109.286L201.694 111.145L201.375 111.517L199.835 111.357L197.605 110.348L197.021 110.932L193.303 111.464L190.329 109.764L187.408 109.923L187.568 108.489L186.453 106.205L184.647 104.93L183.054 104.558L181.885 103.549L182.098 103.124L184.541 103.708L188.63 104.239L192.666 105.886L193.303 106.523L194.843 105.992Z" stroke="#465C58" stroke-width="0.4" stroke-linecap="round" stroke-linejoin="round"/>
<path d="M140.144 129.736L141.79 130.904L143.968 130.692L146.092 130.904V131.542L147.579 131.117L147.313 132.126L143.277 132.392L143.224 131.861L139.719 131.17L140.144 129.736Z" stroke="#465C58" stroke-width="0.4" stroke-linecap="round" stroke-linejoin="round"/>
<path d="M145.03 112.366L143.33 112.26L141.897 111.941L138.604 112.791L140.728 114.703L139.401 115.288H137.861L136.214 113.535L135.736 114.279L136.586 116.297L138.126 117.891L137.117 118.634L138.816 120.175L140.303 121.184L140.516 123.096L137.861 122.193L138.816 123.946L137.064 124.265L138.392 127.293L136.533 127.346L134.09 125.859L132.815 123.15L132.125 120.865L130.904 119.325L129.31 117.359L129.045 116.403L130.213 114.757L130.266 113.641L131.169 113.163L131.116 112.26L132.922 111.994L133.878 111.251L135.365 111.304L135.789 110.72L136.32 110.613L138.339 110.72L140.463 109.763L142.534 110.985L144.977 110.666L144.817 108.967L146.251 109.87L145.667 111.994L145.03 112.366Z" stroke="#465C58" stroke-width="0.4" stroke-linecap="round" stroke-linejoin="round"/>
<path d="M25.2222 -14.3246L35.7904 -12.731L32.2322 -11.9874L25.3284 -11.8811L15.5038 -11.6686L16.2473 -11.2968L22.7793 -11.5624L27.9306 -10.8187L31.6481 -11.4562L32.9226 -10.7125L30.5328 -9.43761L35.4186 -10.2875L44.4998 -11.0843L49.8104 -10.6594L50.7132 -9.75633L42.8535 -8.21586L41.6851 -7.68466L35.631 -7.2597L39.9326 -7.15346L37.3304 -5.45363L35.4186 -3.91316L34.7813 -1.15093L36.7463 0.548902L33.613 0.602022L30.1611 1.45194L33.5068 2.83305L33.4537 5.06408L31.2232 5.32968L33.4006 7.61383L28.7803 7.82631L30.9046 8.8887L30.0549 9.84486L27.0278 10.2698L24.107 10.3229L26.3375 12.129L26.0719 13.4039L22.1951 12.2353L20.9206 12.9789L23.5759 13.6695L26.0188 15.3693L26.3375 17.6535L22.4076 18.1847L20.9737 17.0691L18.7432 15.4756L19.0088 17.3879L16.1411 18.8752L21.8234 18.9815L24.7443 19.1408L18.4246 21.6374L11.9457 23.9216L5.20116 24.8778L2.75829 24.9309L0.156067 26.0464L-3.8269 29.1273L-9.24371 31.199L-10.8369 31.3584L-14.0764 32.0489L-17.5814 32.7926L-20.1305 34.5987L-20.874 36.7235L-22.6796 38.742L-27.2467 41.1855L-27.0874 43.5759L-28.9992 46.1257L-31.1766 49.1535L-34.6285 49.366L-37.2838 46.8162L-42.0634 46.7631L-43.7627 45.0633L-44.1876 42.0886L-46.7367 38.2639L-47.1085 36.2985L-46.3119 33.5894L-48.2768 30.8803L-46.5243 28.7024L-47.5333 27.64L-43.8159 24.2403L-39.9922 23.1248L-38.6115 21.9562L-37.1245 19.7251L-40.0453 20.7344L-41.4261 21.1594L-43.6034 21.5312L-45.8339 20.6282L-45.0373 18.6627L-43.4441 17.1754L-41.4261 17.1223L-37.39 17.9191L-40.2047 16.113L-41.6385 15.1568L-43.9752 15.5287L-45.3559 14.8381L-41.6385 12.2884L-42.3289 11.226L-42.9131 9.36678L-43.6566 6.49832L-45.5684 5.48904L-44.8249 4.37352L-49.1265 2.83305L-53.2157 2.62057L-58.5794 2.72681L-63.6245 2.93929L-65.2708 2.08938L-67.2888 0.442664L-61.4471 -0.354133L-57.4111 -0.460373L-65.1646 -1.15093L-68.6165 -2.16021L-67.4481 -3.11636L-59.1105 -4.285L-51.1445 -5.45363L-49.6576 -6.30355L-53.9591 -7.15346L-51.5163 -8.0565L-43.7097 -9.59697L-40.8419 -9.80945L-40.7357 -10.7656L-35.9562 -11.3499L-30.1145 -11.6686H-24.5914L-23.1044 -11.0312L-17.4752 -12.1998L-13.7046 -11.403L-11.2618 -11.2437L-7.96918 -10.5531L-11.5273 -11.6686L-10.6776 -12.5717L-3.93309 -13.7403L2.22722 -13.6341L4.93563 -14.3778L11.2553 -14.5371L25.2222 -14.3246Z" stroke="#465C58" stroke-width="0.4" stroke-linecap="round" stroke-linejoin="round"/>
<path d="M123.575 95.2081L124.371 96.5361L125.274 97.4923L124.371 98.7671L123.097 98.0235L121.238 98.0766L118.848 97.4923L117.627 97.5454L117.096 98.2891L116.034 97.4923L115.609 98.8734L117.043 100.467L117.733 101.476L119.061 102.751L120.176 103.495L121.291 104.929L123.84 106.204L123.575 106.735L120.92 105.513L119.22 104.292L116.671 103.282L114.175 100.839L114.706 100.573L113.378 99.139L113.219 98.0235L111.467 97.4923L110.723 98.9265L109.873 97.811V96.6423L109.927 96.5892L111.838 96.6955L112.263 96.1643L113.219 96.6955L114.281 96.7486L114.228 95.8455L115.131 95.4737L115.29 94.1457L117.361 93.2427L118.211 93.6676L120.335 95.1019L122.619 95.7393L123.575 95.2081Z" stroke="#465C58" stroke-width="0.4" stroke-linecap="round" stroke-linejoin="round"/>
<path d="M131.381 86.8685L132.975 87.7716L133.24 88.6746L131.7 89.3652L130.691 91.5962L129.31 93.8803L127.239 94.5178L125.54 94.3584L123.575 95.2083L122.619 95.7395L120.335 95.1021L118.211 93.6679L117.361 93.2429L116.724 92.1274L116.299 92.0743L116.99 89.9495L116.406 89.2058H117.893L117.999 87.8247L119.433 88.7277L120.442 89.0464L122.619 88.6746L122.778 87.984L123.787 87.8778L125.009 87.3997L125.327 87.6122L126.549 87.1873L127.08 86.3905L127.93 86.178L130.85 87.1873L131.381 86.8685Z" stroke="#465C58" stroke-width="0.4" stroke-linecap="round" stroke-linejoin="round"/>
<path d="M307.375 148.541L305.889 150.134L305.411 153.322L308.491 154.596L311.571 156.243L315.713 158.156L319.802 158.634L321.82 160.333L324.104 160.652L327.768 161.449L330.211 161.396L330.264 160.068L329.468 157.89L329.361 156.456L331.008 155.712L331.804 158.421L332.017 159.059L334.938 160.387L336.637 159.855L339.133 160.068L341.523 159.962L341.257 157.89L339.877 156.774L342.107 156.349L344.178 153.8L347.046 151.675L349.648 152.472L351.347 151.037L353.259 153.162L352.622 154.596L355.861 155.128L356.393 156.403L355.49 157.04L356.233 159.112L354.003 158.527L350.71 160.865L351.188 162.83L350.126 165.699L350.285 167.345L349.436 170.161L346.993 169.364L347.471 172.923L346.94 174.091L347.471 175.526L346.143 176.322L343.806 170.904H343.01L342.85 173.135L340.939 171.329L341.576 169.417L342.85 169.204L343.7 166.336L341.895 165.752L339.186 165.805L336.318 165.327L335.681 162.936L334.247 162.777L331.645 161.29L331.008 163.627L333.451 165.433L331.857 166.708L331.38 167.93L333.344 168.833L333.185 170.904L334.566 173.454L335.416 176.269L335.15 177.544L333.132 177.491L329.627 178.182L330.105 180.731L328.83 182.75L324.847 185.087L322.033 189.071L320.015 191.249L317.359 193.48L317.519 195.021L316.138 195.871L313.589 197.092L312.208 197.252L311.571 199.855L312.58 204.317L312.952 207.132L311.943 210.372L312.314 216.162L310.774 216.322L309.553 218.925L310.562 220.093L307.853 221.049L306.951 223.333L305.782 224.343L302.808 221.156L301.162 216.375L299.834 212.922L298.666 211.328L296.86 208.035L295.798 203.785L295.055 201.661L291.922 196.986L290.063 190.346L288.682 185.99L288.257 181.847L287.354 178.66L283.265 180.731L281.141 180.306L276.839 176.163L278.114 174.941L277.105 173.613L273.334 170.692L275.034 168.408H281.46L280.504 165.486L278.645 163.786L277.902 161.13L275.777 159.643L278.379 156.031L281.831 156.296L284.221 152.737L285.389 149.285L287.461 145.832L286.93 143.388L288.948 141.423L286.239 139.776L284.699 137.439L282.947 134.464L284.009 132.977L288.523 133.827L291.55 133.295L293.568 130.427L297.657 134.464L298.082 137.226L299.675 138.979L299.994 140.732L297.816 140.254L299.516 144.026L302.808 146.15L307.375 148.541Z" stroke="#465C58" stroke-width="0.4" stroke-linecap="round" stroke-linejoin="round"/>
<path d="M57.2983 68.9675L57.67 71.3048L55.5989 74.2264L50.9255 76.1387L47.3143 75.6606L49.5979 72.2609L48.4826 68.9675L52.0408 66.4178L54.0057 64.9304L54.4837 66.6303L53.8464 68.3832L55.4396 68.3301L57.2983 68.9675Z" stroke="#465C58" stroke-width="0.4" stroke-linecap="round" stroke-linejoin="round"/>
<path d="M201.906 119.431L202.862 119.325L205.677 116.828L206.686 116.563L207.695 117.572L207.058 119.219L209.129 121.025L209.819 120.812L211.147 123.362L213.962 124.053L216.245 125.753L220.334 126.337L224.583 125.434L224.689 124.637L227.026 124L228.619 122.034L230.531 122.14L231.593 121.503L233.664 121.822L237.169 123.575L239.453 123.946L243.329 126.921L245.454 127.081L246.356 129.896L246.038 134.145L245.772 136.642L247.1 137.173L246.25 139.032L247.684 141.742L248.321 143.919L250.605 144.504L251.189 146.682L249.118 149.763L250.817 151.569L252.304 153.64L255.331 155.128L255.862 158.102L257.296 158.687L257.774 160.227L253.791 162.033L253.207 165.964L247.578 164.955L244.285 164.158L240.94 163.733L239.187 159.537L237.7 158.952L235.523 159.537L232.814 161.183L229.097 160.068L225.857 157.412L222.937 156.456L220.6 153.215L217.838 148.7L216.351 149.231L214.386 148.116L213.484 149.444L211.625 147.638L211.359 145.832H210.457L210.563 143.335L208.704 140.785L204.934 138.873L202.491 135.633L202.756 132.977L203.978 131.808L203.5 129.843L201.482 128.78L198.986 124.743L196.968 122.034L197.339 120.972L195.799 117.094L197.552 116.085L198.189 117.413L199.888 118.953L201.906 119.431Z" stroke="#465C58" stroke-width="0.4" stroke-linecap="round" stroke-linejoin="round"/>
<path d="M198.986 124.743L201.482 128.78L203.5 129.843L203.978 131.808L202.756 132.977L202.491 135.633L204.933 138.873L208.704 140.785L210.563 143.335L210.457 145.832H211.359L211.625 147.638L213.484 149.444L211.731 149.285L209.766 148.966L208.014 152.259L202.597 151.994L193.675 145.141L189.108 142.751L185.497 141.795L183.85 137.651L189.692 134.092L190.223 130.002L189.586 127.505L191.02 126.655L192.135 124.531L193.25 124L196.596 124.478L197.711 125.328L198.986 124.743Z" stroke="#465C58" stroke-width="0.4" stroke-linecap="round" stroke-linejoin="round"/>
<path d="M40.3574 29.8179L39.6139 31.7303L41.9506 33.7488L38.7111 36.033L31.7542 38.1046L29.683 38.6889L26.7091 38.2109L20.3894 37.2547L22.9385 35.9267L18.159 34.4925L22.3544 33.9082L22.4075 33.0051L17.7341 32.3146L19.6459 30.3491L23.151 29.9242L26.3373 31.9427L30.0548 30.3491L32.7632 31.1459L36.6399 29.6055L40.3574 29.8179Z" stroke="#465C58" stroke-width="0.4" stroke-linecap="round" stroke-linejoin="round"/>
<path d="M175.406 138.022L175.619 139.404L175.3 139.935H175.353L174.982 140.997L173.866 140.572L173.495 142.803L174.291 143.175L173.601 143.653L173.548 144.556L174.875 144.131L175.088 145.459L174.132 150.877L173.76 150.028L171.689 145.034L172.433 143.919L172.22 143.706L172.804 142.113L173.123 139.563L173.442 138.66H173.495H174.451L174.663 138.076L175.406 138.022Z" stroke="#465C58" stroke-width="0.4" stroke-linecap="round" stroke-linejoin="round"/>
<path d="M116.512 121.131L115.609 123.84L116.087 124.849L115.609 126.602L113.378 125.327L111.945 124.955L107.962 123.255L108.227 121.502L111.52 121.821L114.387 121.449L116.512 121.131Z" stroke="#465C58" stroke-width="0.4" stroke-linecap="round" stroke-linejoin="round"/>
<path d="M98.4556 111.038L100.208 113.428L99.9957 117.943L98.7212 117.731L97.6059 118.846L96.5438 117.943L96.2783 113.853L95.588 111.941L97.128 112.1L98.4556 111.038Z" stroke="#465C58" stroke-width="0.4" stroke-linecap="round" stroke-linejoin="round"/>
<path d="M109.98 93.2427L109.767 94.8894L110.511 96.3236L108.333 95.7924L106.262 97.0142L106.475 98.6609L106.209 99.617L107.218 101.317L109.873 103.017L111.414 105.832L114.653 108.541L116.777 108.488L117.521 109.232L116.777 109.922L119.326 111.144L121.451 112.153L123.947 113.959L124.265 114.544L123.84 115.765L122.194 114.172L119.751 113.641L118.742 115.819L120.813 117.093L120.601 118.846L119.486 119.059L118.158 121.98L116.99 122.246L116.937 121.184L117.415 119.378L117.999 118.634L116.777 116.668L115.821 114.969L114.653 114.544L113.697 113.109L111.892 112.472L110.617 111.091L108.599 110.878L106.315 109.391L103.713 107.16L101.748 105.248L100.739 101.901L99.3585 101.529L97.128 100.414L95.9066 100.839L94.3665 102.432L93.2512 102.645L93.5168 101.211L92.0298 100.786L91.2332 98.1828L92.136 97.1735L91.3394 95.8987L91.3925 94.9425L92.5608 95.6862L93.8885 95.5268L95.3224 94.3582L95.8003 94.8894L97.0749 94.7831L97.6059 93.4551L99.624 93.8801L100.739 93.2958L100.899 91.9678L102.545 92.4459L102.81 91.8084L105.413 91.2241L106.103 92.3396L109.98 93.2427Z" stroke="#465C58" stroke-width="0.4" stroke-linecap="round" stroke-linejoin="round"/>
<path d="M185.497 141.794L185.019 142.325L179.496 144.025L182.682 147.478L181.832 148.009L181.461 149.178L179.283 149.656L178.699 150.878L177.584 151.94L174.291 151.356L174.132 150.878L175.088 145.459L174.876 144.131L175.194 143.122L174.982 140.997L175.353 139.935L178.699 141.316L183.85 137.651L185.497 141.794Z" stroke="#465C58" stroke-width="0.4" stroke-linecap="round" stroke-linejoin="round"/>
<path d="M259.952 70.1879L262.288 70.0285L267.174 66.9476L266.749 68.01L271.21 70.5066L280.929 78.7933L281.513 77.0934L285.974 78.9526L289.266 78.1027L291.019 78.687L293.196 80.5994L295.32 81.2368L297.073 82.671L300.259 82.1929L302.596 84.2115L301.587 86.4425L299.569 86.7612L300.897 90.0547L300.047 91.5951L294.311 90.4796L294.842 96.4822L293.78 97.2258L288.948 98.5538L293.621 104.397L292.081 105.247L292.984 107.212L291.125 106.681L289.319 105.459L285.124 105.141L280.557 105.034L279.707 105.406L275.353 103.972L274.025 104.716L274.29 106.681L269.405 105.513L267.758 105.991L267.599 107.478L266.218 108.115L263.35 110.453L262.873 112.896H261.81L260.589 111.303L257.031 111.196L255.703 108.434L254.322 108.381L253.526 104.981L249.49 102.538L244.923 102.803L241.896 103.281L238.391 100.254L235.841 98.9788L230.956 96.5884L230.371 96.3228L223.999 98.2882L227.291 110.718L225.911 110.878L223.361 108.222L221.29 107.265L218.316 107.956L217.36 109.125L217.042 108.275L217.36 106.894L216.564 105.725L213.112 104.556L211.147 101.529L209.448 100.679L209.129 99.5631L211.837 99.8818L211.306 97.4383L213.484 96.9071L215.98 97.3852L215.608 94.1449L214.599 92.0732L211.944 92.2326L209.448 91.4358L206.739 92.87L204.403 93.6137L202.916 93.0294L202.809 91.3295L200.526 89.0985L198.614 89.2048L195.799 86.9737L196.702 84.424L195.746 83.7865L196.915 80.1213L200.101 82.0336L199.782 79.6432L204.084 76.0842L208.12 75.9779L214.493 78.2621L217.998 79.5901L220.334 78.209L224.424 78.1558L228.3 79.8557L228.725 78.8464L232.443 79.0058L232.549 77.4653L227.557 75.1811L229.416 73.5875L228.619 72.7376L230.743 71.8877L228.035 69.6567L228.778 68.5412L237.806 67.4256L238.709 66.6289L244.498 65.4071L246.144 64.0791L250.977 64.7697L253.313 68.1162L255.597 67.3194L259.367 68.4349L259.952 70.1879Z" stroke="#465C58" stroke-width="0.4" stroke-linecap="round" stroke-linejoin="round"/>
<path d="M292.984 107.214L292.878 107.957L289.213 109.763L288.682 111.145L285.283 111.516L284.965 113.694L281.885 113.216L280.185 113.907L278.008 115.5L278.645 116.297L278.061 117.041L272.963 117.572L269.192 116.457L266.271 116.722L265.953 114.81L269.139 115.341L269.883 114.332L272.06 114.65L274.875 112.207L271.051 110.401L269.352 111.251L266.909 109.976L268.502 107.798L267.599 107.479L267.758 105.992L269.405 105.514L274.29 106.682L274.025 104.717L275.353 103.973L279.707 105.408L280.557 105.036L285.124 105.142L289.319 105.461L291.125 106.682L292.984 107.214Z" stroke="#465C58" stroke-width="0.4" stroke-linecap="round" stroke-linejoin="round"/>
<path d="M211.731 149.285L212.528 150.772L212.368 151.569L213.643 154.118L211.572 154.225L210.669 152.578L208.014 152.259L209.766 148.966L211.731 149.285Z" stroke="#465C58" stroke-width="0.4" stroke-linecap="round" stroke-linejoin="round"/>
<path d="M175.406 138.023L174.663 138.076L174.451 138.66H173.495L174.185 135.845L175.353 133.455V133.348L176.681 133.508L177.318 134.836L175.884 136.164L175.406 138.023Z" stroke="#465C58" stroke-width="0.4" stroke-linecap="round" stroke-linejoin="round"/>
<path d="M145.401 143.813L144.499 145.46L145.03 146.947L144.446 149.019L145.508 151.781L146.198 163.892L146.729 176.482L146.995 183.281H143.596V184.715L131.594 178.182L119.645 171.648L116.724 173.507L114.706 174.782L113.007 172.923L108.333 171.435L107.006 169.311L104.616 167.717L103.288 168.355L102.173 166.442L102.067 165.008L100.261 162.511L101.43 161.077L101.111 158.952L101.43 157.093L101.217 155.5L101.642 152.737L101.43 151.144L100.421 148.116L101.801 147.372L102.014 145.885L101.695 144.504L103.607 143.176L104.457 142.06L105.837 141.104L105.89 138.501L109.289 139.67L110.511 139.351L112.9 139.935L116.777 141.476L118.264 144.504L120.866 145.141L125.009 146.575L128.195 148.275L129.523 147.372L130.85 145.832L130.001 143.229L130.797 141.529L132.762 139.935L134.727 139.51L138.657 140.201L139.719 141.688L140.781 141.742L141.737 142.326L144.605 142.698L145.401 143.813Z" stroke="#465C58" stroke-width="0.4" stroke-linecap="round" stroke-linejoin="round"/>
<path d="M139.294 63.3369L139.826 64.7712L137.914 65.8335L137.648 67.6396L135.099 68.8614H132.603L131.86 67.8521L130.532 67.4803L130.213 66.6835L130.319 65.7804L129.151 65.3024L126.443 64.718L125.54 62.0089L128.248 61.0528L132.444 61.2652L134.834 60.9465L135.311 61.584L136.639 61.7964L139.294 63.3369Z" stroke="#465C58" stroke-width="0.4" stroke-linecap="round" stroke-linejoin="round"/>
<path d="M89.2682 83.4162L88.5247 83.4693L87.9406 83.2037L88.153 81.3445L88.8434 81.2383L89.3744 81.982L89.2682 83.4162Z" stroke="#465C58" stroke-width="0.4" stroke-linecap="round" stroke-linejoin="round"/>
<path d="M140.197 57.44L141.525 58.1306L142.056 59.6711L143.171 61.5834L140.728 62.8051L139.294 63.3363L136.639 61.7958L135.311 61.5834L134.833 60.9459L132.444 61.2647L128.248 61.0522L125.54 62.0083L125.274 59.6179L126.177 57.5994L128.354 56.537L130.691 58.9274L132.656 58.8211L132.709 56.3776L134.727 55.8464L135.842 56.2183L138.179 57.3869L140.197 57.44Z" stroke="#465C58" stroke-width="0.4" stroke-linecap="round" stroke-linejoin="round"/>
<path d="M66.9105 131.543L67.9195 133.721L68.0789 135.792L69.0879 139.404L69.8314 140.148L69.3003 141.476L65.5298 142.06L64.2021 143.282L62.5558 143.601L62.3965 146.151L58.9977 147.479L57.8824 149.178L55.4927 150.082L52.625 150.613L47.8985 153.162L47.8454 157.2H47.3674L47.4205 159.006L45.6149 159.112L44.659 159.909H43.3314L42.2692 159.431L39.8263 159.802L38.8173 162.458L37.8614 162.724L36.4276 167.027L32.2321 170.692L31.17 175.42L29.8955 176.96L29.5237 178.182L22.8855 178.447H22.8323L22.9916 176.854L24.16 175.951L25.169 174.145L25.0097 172.976L26.0718 170.586L27.7712 168.408L28.7802 167.877L29.6299 165.911L29.7361 164.052L30.8514 161.98L32.8694 160.705L34.7812 157.253L34.8344 157.2L36.3744 155.872L39.0829 155.5L41.4195 153.162L42.9065 152.259L45.4025 149.391L44.7652 145.195L45.9335 142.22L46.4115 140.414L48.3233 138.13L51.1911 136.589L53.3684 135.155L55.3334 131.649L56.2893 129.524L58.3604 129.577L60.0067 131.012L62.7151 130.799L65.636 131.543H66.9105Z" stroke="#465C58" stroke-width="0.4" stroke-linecap="round" stroke-linejoin="round"/>
<path d="M149.013 96.6426L148.322 95.1021L148.429 93.6679L148.11 92.2337L146.304 90.2151L145.242 88.834L144.286 87.8779L143.437 87.506L144.021 87.0279L145.72 86.7092L147.844 87.7185L148.906 87.8779L150.287 88.7809L150.234 89.8964L151.296 90.4276L151.88 91.8087L152.943 92.6586L152.836 93.1898L153.367 93.5086L152.677 93.7742L151.084 93.6679L150.765 93.1898L150.234 93.4554L150.553 94.0397L149.969 95.1553L149.65 96.2708L149.013 96.6426Z" stroke="#465C58" stroke-width="0.4" stroke-linecap="round" stroke-linejoin="round"/>
<path d="M136.32 110.613L135.789 110.719L135.364 111.303L133.877 111.25L132.921 111.994L131.116 112.26L129.894 111.463L129.363 110.029L129.629 108.86L130.001 108.913L130.054 108.223L131.594 107.691L132.231 107.532L133.134 107.373L134.408 107.266L135.895 108.382L136.32 110.613Z" stroke="#465C58" stroke-width="0.4" stroke-linecap="round" stroke-linejoin="round"/>
<path d="M85.7102 186.15L85.7632 194.011L84.117 196.295L83.9045 198.42L81.2492 198.951L77.16 199.217L76.0979 200.439L74.1861 200.598H72.2743L71.5308 199.961L69.8845 200.439L67.0699 201.873L66.4857 202.935L64.2021 204.423L63.7773 205.326L62.5027 206.016L61.0689 205.538L60.2723 206.388L59.7943 208.726L57.4045 211.541L57.5107 212.709L56.661 214.144L56.8735 216.109L55.5989 216.64L54.9085 217.065L54.4306 215.631L53.5809 216.003L53.0498 215.95L52.5188 216.906H50.1821L49.3855 216.375L48.9606 216.693L48.0578 215.684L48.2171 214.675L47.8454 214.303L47.2081 214.622L47.3675 213.506L47.9516 212.656L46.7302 211.222L46.4116 210.266L45.7212 209.522L45.137 209.416L44.4466 209.894L43.4376 210.372L42.641 211.116L41.3665 210.85L40.5167 209.947L40.0388 209.841L39.2422 210.319H38.7642L38.6049 209.044L38.7642 207.982L38.4987 206.707L37.4366 205.751L36.8524 203.785L36.7462 201.661L37.7552 201.023L38.2863 199.005L39.2422 198.951L41.3133 199.908L43.0127 199.217L44.128 199.43L44.6059 198.686L56.5548 198.633L57.2452 196.242L56.7141 195.817L55.3865 181.103L54.112 166.389L58.626 166.336L68.5037 173.773L78.4346 181.209L79.125 182.803L80.9837 183.759L82.3645 184.344L82.4176 186.521L85.7102 186.15Z" stroke="#465C58" stroke-width="0.4" stroke-linecap="round" stroke-linejoin="round"/>
<path d="M128.407 105.62L127.983 106.363L127.239 106.682L127.027 106.045L126.018 107.691L126.283 108.807L125.699 108.541L124.796 107.426L123.575 106.735L123.84 106.204L124.053 104.345L124.902 103.548L125.38 103.229L126.124 103.814L126.602 104.292L127.505 104.663L128.62 105.354L128.407 105.62Z" stroke="#465C58" stroke-width="0.4" stroke-linecap="round" stroke-linejoin="round"/>
<path d="M58.6258 166.336L54.1118 166.389L55.3863 181.103L56.714 195.817L57.2451 196.242L56.5547 198.632L44.6058 198.685L44.1278 199.429L43.0126 199.217L41.3132 199.907L39.2421 198.951L38.2862 199.004L37.7551 201.023L36.7461 201.66L34.8343 199.323L33.0286 196.773L31.1168 195.87L29.6829 194.914H28.0366L26.5497 195.658L25.1158 195.392L24.0537 196.454L23.8413 194.648L24.6909 192.949L25.1158 189.761L24.9034 186.362L24.5847 184.662L24.9034 182.962L24.1599 181.368L22.6729 179.881L23.3633 178.766H34.8873L34.4094 173.825L35.206 172.072L37.9675 171.807L38.0737 163.042L47.6328 163.255L47.7391 158.049L58.6258 166.336Z" stroke="#465C58" stroke-width="0.4" stroke-linecap="round" stroke-linejoin="round"/>
<path d="M140.675 20.7879L137.276 21.9034L135.577 22.169L136.002 20.1505L132.921 19.035L129.788 19.9911L129.204 22.1159L127.398 23.3908L124.902 22.7002L122.088 22.8065L119.379 21.3191L118.211 22.0628L116.83 22.169L116.883 24.0813L112.635 23.6033L112.316 25.25H110.192L108.971 27.3217L107.165 30.562L104.138 34.7584L105.094 35.8208L104.403 36.9895L102.12 36.9363L100.845 39.8048L101.376 43.895L103.023 45.4355L102.598 49.1008L100.792 51.2255L99.8363 53.0316L98.0838 51.1193L93.5167 54.7314L90.2772 55.4751L86.8253 53.8815L85.8694 50.535L84.8073 43.3638L86.9315 41.3984L92.9325 38.7955L97.2341 35.6615L101.058 31.5181L105.784 25.8343L109.183 23.6564L114.653 20.0442L119.167 18.7694L122.725 18.9287L125.487 16.5915L129.416 16.6977L133.134 16.1665L140.409 18.2382L137.807 18.9819L140.675 20.7879Z" stroke="#465C58" stroke-width="0.4" stroke-linecap="round" stroke-linejoin="round"/>
<path d="M107.377 -6.19734L114.069 -4.39127L109.502 -3.43512L108.864 -1.62905L107.271 -1.15097L106.793 0.973824L104.457 1.08006L99.9425 -0.46041L101.536 -1.36345L98.5087 -2.10712L94.4195 -4.17879L92.7201 -6.03798L97.6589 -6.8879L98.8804 -6.0911H101.536L102.067 -6.8879L104.828 -6.99414L107.377 -6.19734Z" stroke="#465C58" stroke-width="0.4" stroke-linecap="round" stroke-linejoin="round"/>
<path d="M231.009 194.702L229.84 192.312L227.079 186.681L235.735 183.281L237.116 176.482L235.523 174.038V172.657L236.213 171.276L236.107 169.895L237.382 169.204L236.797 168.726V166.495H238.284L239.878 168.833L241.63 170.054L243.807 170.532L245.613 171.117L247.153 173.082L248.056 174.198L249.118 174.676L249.224 175.419L248.321 177.438L247.95 178.394L246.781 179.51L245.879 181.847L244.551 181.634L244.02 182.484L243.648 184.184L244.232 186.468L243.967 186.893H242.639L240.887 188.168L240.727 189.815L240.09 190.559L238.231 190.506L237.169 191.355L237.275 192.737L235.895 193.693L234.248 193.374L232.336 194.543L231.009 194.702Z" stroke="#465C58" stroke-width="0.4" stroke-linecap="round" stroke-linejoin="round"/>
<path d="M237.594 163.786L236.904 162.617L237.647 161.502L238.019 161.767L237.913 163.202L237.594 163.786Z" stroke="#465C58" stroke-width="0.4" stroke-linecap="round" stroke-linejoin="round"/>
<path d="M293.568 130.427L291.55 133.295L288.523 133.826L284.009 132.976L282.947 134.464L284.699 137.439L286.239 139.776L288.948 141.422L286.93 143.388L287.461 145.831L285.389 149.284L284.221 152.737L281.831 156.296L278.38 156.03L275.777 159.643L277.902 161.13L278.645 163.786L280.504 165.486L281.46 168.407H275.034L273.334 170.691L271.104 169.842L269.936 167.398L267.333 164.795L262.023 165.433L257.243 165.486L253.207 165.964L253.791 162.033L257.774 160.227L257.296 158.686L255.862 158.102L255.331 155.127L252.304 153.64L250.817 151.568L249.118 149.762L254.216 151.515L257.031 150.984L258.836 151.409L259.314 150.665L261.386 150.984L264.891 149.55L264.466 146.681L265.687 144.716H267.864L267.971 143.813L270.095 143.335L271.21 143.654L272.166 142.697L271.582 140.626L272.325 138.607L273.972 137.704L272.325 135.473L275.087 135.579L275.565 134.358L275.14 133.03L276.202 131.595L275.459 129.895L274.45 128.461L275.724 126.974L278.539 126.283L281.672 125.858L282.947 125.274L284.487 124.849L286.983 126.443L288.523 129.099L293.568 130.427Z" stroke="#465C58" stroke-width="0.4" stroke-linecap="round" stroke-linejoin="round"/>
<path d="M122.725 67.1612L125.858 67.5331L130.532 67.48L131.859 67.8518L132.603 68.8611L132.922 70.2953L133.824 71.5171L134.037 72.7919L132.55 73.4825L133.559 74.9698L133.824 76.4572L135.524 79.3257L135.364 80.2287L134.143 80.6005L132.125 83.3628L132.975 84.8501L132.39 84.6376L129.735 83.3628L127.876 83.8408L126.602 83.5221L125.115 84.2127L123.681 83.0441L122.672 83.5221L122.513 83.3096L121.132 81.6629L119.167 81.5036L118.795 80.4412L116.99 80.0693L116.671 80.9193L115.184 80.2287L115.29 79.3257L113.325 79.0601L111.998 77.9977L110.723 75.926L110.829 74.7574L110.033 73.0044L109.024 71.8889L109.661 70.9859L108.918 69.3392L110.564 68.383L114.334 66.8956L117.415 65.8333L119.964 66.3644L120.282 67.1612H122.725Z" stroke="#465C58" stroke-width="0.4" stroke-linecap="round" stroke-linejoin="round"/>
<path d="M174.982 140.997L175.194 143.122L174.875 144.132L173.548 144.556L173.601 143.653L174.291 143.175L173.495 142.804L173.866 140.573L174.982 140.997Z" stroke="#465C58" stroke-width="0.4" stroke-linecap="round" stroke-linejoin="round"/>
<path d="M223.733 167.505L222.937 167.77L221.981 167.08L221.556 164.583L222.14 162.83L222.937 162.458L223.892 163.521L224.158 165.486L223.733 167.505Z" stroke="#465C58" stroke-width="0.4" stroke-linecap="round" stroke-linejoin="round"/>
<path d="M143.437 87.5063L144.286 87.8782L145.242 88.8343L146.304 90.2155L148.11 92.234L148.429 93.6682L148.322 95.1025L149.013 96.6429L150.287 97.2804L151.509 96.6961L152.783 97.2804L152.996 98.1834L151.774 98.874L150.925 98.5553L150.712 102.645L149.066 102.274L146.942 101.052L143.808 101.849L142.587 102.699L138.551 102.486L136.427 102.008L135.418 102.221L134.462 100.839L133.931 100.255L134.462 99.6708L133.771 99.2989L132.975 100.043L131.328 99.0333L130.957 97.6522L129.257 96.9085L128.832 95.793L127.239 94.5182L129.31 93.8807L130.691 91.5966L131.7 89.3655L133.24 88.675L134.302 87.9313L136.002 88.3031H137.701L139.029 89.1531L139.878 88.6219L141.79 88.3031L142.321 87.5063H143.437Z" stroke="#465C58" stroke-width="0.4" stroke-linecap="round" stroke-linejoin="round"/>
<path d="M47.8453 157.199L47.7921 157.412L47.7391 158.049L47.6328 163.255L38.0737 163.042L37.9675 171.807L35.206 172.073L34.4094 173.826L34.8873 178.766H23.3633L22.6729 179.881L22.8322 178.447H22.8854L29.5236 178.182L29.8953 176.96L31.1699 175.419L32.232 170.692L36.4274 167.026L37.8613 162.724L38.8172 162.458L39.8262 159.802L42.2691 159.43L43.3312 159.908H44.6589L45.6148 159.112L47.4204 159.005L47.3673 157.199H47.8453Z" stroke="#465C58" stroke-width="0.4" stroke-linecap="round" stroke-linejoin="round"/>
<path d="M208.014 152.26L210.669 152.578L211.572 154.225L213.643 154.119L215.077 157.093L216.617 157.837L217.254 159.059L219.378 160.493L219.75 161.874L219.538 163.043L220.016 164.158L220.972 165.115L221.45 166.23L221.981 167.08L222.937 167.77L223.733 167.505L224.424 168.833L224.583 169.577L226.017 173.082L234.992 174.782L235.523 174.039L237.116 176.482L235.735 183.281L227.079 186.681L218.635 188.009L215.98 189.55L214.121 193.109L212.74 193.693L211.944 192.577L210.828 192.737L207.908 192.365L207.323 192.046L203.925 192.099L203.128 192.418L201.853 191.568L201.163 193.215L201.588 194.649L200.313 195.765L199.835 194.277L198.879 193.268L198.614 191.887L196.968 190.665L195.215 187.797L194.206 185.034L192.029 182.697L190.701 182.113L188.524 178.873L188.046 176.535V174.517L186.134 170.692L184.647 169.364L183.054 168.674L181.939 166.708L182.045 165.964L181.089 164.158L180.186 163.415L178.858 160.865L176.84 158.156L175.194 155.819H173.76L174.026 153.959L174.079 152.738L174.291 151.356L177.584 151.941L178.699 150.878L179.283 149.657L181.461 149.179L181.832 148.01L182.682 147.479L179.496 144.026L185.019 142.326L185.497 141.795L189.108 142.751L193.675 145.141L202.597 151.994L208.014 152.26Z" stroke="#465C58" stroke-width="0.4" stroke-linecap="round" stroke-linejoin="round"/>
<path d="M134.462 100.839L133.877 101.583L134.249 102.858L135.736 104.292L134.78 105.354L134.462 106.417L134.78 106.842L134.409 107.267L133.134 107.373L132.231 107.532L132.072 107.267L132.39 106.895L132.603 106.045L132.231 106.098L131.647 105.46L131.169 105.301L130.744 104.77L130.213 104.557L129.788 104.079L129.31 104.292L129.045 105.407L128.407 105.62L128.62 105.354L127.505 104.664L126.602 104.292L126.124 103.814L125.38 103.229L125.965 103.07L126.23 101.53L124.796 100.202L125.38 98.7142L124.371 98.7673L125.274 97.4925L124.371 96.5363L123.575 95.2083L125.54 94.3584L127.239 94.5178L128.832 95.7926L129.257 96.9081L130.957 97.6518L131.328 99.0329L132.975 100.042L133.771 99.2985L134.462 99.6704L133.931 100.255L134.462 100.839Z" stroke="#465C58" stroke-width="0.4" stroke-linecap="round" stroke-linejoin="round"/>
<path d="M132.39 84.6373L131.753 85.5403L131.381 86.8683L130.85 87.187L127.93 86.1778L127.08 86.3902L126.549 87.187L125.327 87.612L125.009 87.3995L123.787 87.8776L122.778 87.9838L122.619 88.6744L120.442 89.0462L119.433 88.7275L117.999 87.8245L117.627 86.709L117.786 86.284L118.105 85.5403L119.273 85.5935L120.123 85.2747L120.176 84.956L120.654 84.7967L120.76 84.053L121.344 83.8936L121.716 83.3093H122.513L122.672 83.5218L123.681 83.0437L125.115 84.2123L126.602 83.5218L127.876 83.8405L129.735 83.3624L132.39 84.6373Z" stroke="#465C58" stroke-width="0.4" stroke-linecap="round" stroke-linejoin="round"/>
<path d="M117.362 93.2431L115.29 94.1461L115.131 95.4741L114.228 95.846L114.281 96.749L113.219 96.6959L112.263 96.1647L111.838 96.6959L109.927 96.5896L110.511 96.324L109.767 94.8898L109.98 93.2431L112.21 93.5087L113.485 92.7119L115.821 92.6588L116.299 92.0745L116.724 92.1276L117.362 93.2431Z" stroke="#465C58" stroke-width="0.4" stroke-linecap="round" stroke-linejoin="round"/>
<path d="M127.133 31.1465L123.416 31.9964L121.557 34.0681L122.247 35.9272L118.955 38.3176L114.812 40.9736L113.697 45.2763L115.662 47.4542L118.211 49.2072L116.459 52.7131L114.016 53.4568L113.697 58.7687L112.582 61.7966L109.555 61.4779L108.386 64.0276L105.466 64.187L104.457 61.1591L102.067 57.4939L99.8364 53.0318L100.792 51.2257L102.598 49.1009L103.023 45.4357L101.376 43.8952L100.845 39.805L102.12 36.9365L104.404 36.9896L105.094 35.821L104.138 34.7586L107.165 30.5622L108.971 27.3218L110.192 25.2502H112.316L112.635 23.6035L116.883 24.0815L116.83 22.1692L118.211 22.063L121.398 23.4972L125.221 25.4627L126.177 29.9778L127.133 31.1465Z" stroke="#465C58" stroke-width="0.4" stroke-linecap="round" stroke-linejoin="round"/>
<path d="M183.85 137.651L178.699 141.316L175.353 139.935H175.3L175.619 139.404L175.406 138.023L175.884 136.164L177.318 134.836L176.681 133.508L175.353 133.348L174.769 130.746L175.3 129.311L175.991 128.568L176.628 127.824L176.522 125.965L177.531 126.602L180.505 125.646L182.098 126.283H184.434L187.462 125.009L189.002 125.062L192.135 124.531L191.02 126.655L189.586 127.505L190.223 130.002L189.692 134.092L183.85 137.651Z" stroke="#465C58" stroke-width="0.4" stroke-linecap="round" stroke-linejoin="round"/>
<path d="M269.883 114.332L269.139 115.341L265.953 114.81L266.271 116.722L269.192 116.456L272.963 117.572L278.061 117.041L279.707 120.228L280.504 119.856L282.469 120.653L282.734 121.981L283.69 123.893H280.822L278.804 123.628L277.477 125.168L276.308 125.487L275.512 126.231L274.078 125.115L273.6 122.247L272.697 122.087L272.75 121.025L270.998 120.281L270.095 121.45L270.201 122.831L269.883 123.309L268.183 123.256L267.705 124.796L266.59 124.159L264.784 125.221L263.828 124.849L264.519 121.397L263.244 118.847L261.014 118.05L261.332 116.563L263.669 116.722L264.466 114.863L264.731 112.685L268.183 111.888L268.077 113.482L268.767 114.385L269.883 114.332Z" stroke="#465C58" stroke-width="0.4" stroke-linecap="round" stroke-linejoin="round"/>
<path d="M259.952 124.106L259.102 123.999L257.562 123.096L257.403 124.265L255.172 124.956L255.278 127.665L253.898 128.727L251.773 129.205L251.561 130.746L249.49 131.224L246.356 129.896L245.454 127.08L243.329 126.921L239.453 123.946L237.169 123.575L233.664 121.822L231.593 121.503L230.531 122.14L228.619 122.034L227.026 123.999L224.689 124.637L223.68 122.247L223.361 118.688L220.919 117.519L221.131 115.235L219.272 115.022L219.219 112.154L222.034 113.004L224.211 111.941L221.715 109.87L220.441 107.957L218.423 108.807L218.741 111.304L217.36 109.126L218.316 107.957L221.29 107.267L223.361 108.223L225.911 110.879L227.291 110.72L230.425 110.666L229.522 108.967L231.54 107.798L233.345 105.833L237.541 107.639L238.55 110.295L239.771 110.985L242.692 110.826L243.807 111.463L246.091 114.969L249.861 117.306L252.092 118.9L255.438 120.547L259.527 122.034L259.952 124.106Z" stroke="#465C58" stroke-width="0.4" stroke-linecap="round" stroke-linejoin="round"/>
<path d="M105.89 138.501L105.837 141.104L104.457 142.06L103.607 143.176L101.695 144.504L102.014 145.885L101.801 147.372L100.421 148.116L99.0398 142.007L97.2342 140.626L97.1811 139.829L94.7913 137.758L94.4726 135.208L96.172 133.296L96.7562 130.48L96.2251 127.24L96.7562 125.487L99.7832 124.159L101.748 124.531V126.284L104.085 125.009L104.297 125.646L102.97 127.346L103.023 128.887L104.032 129.737L103.766 132.711L101.907 134.411L102.545 136.27L104.032 136.323L104.775 137.97L105.89 138.501Z" stroke="#465C58" stroke-width="0.4" stroke-linecap="round" stroke-linejoin="round"/>
<path d="M187.408 109.923L190.329 109.763L193.303 111.463L193.994 112.632L194.047 114.279L196.277 115.128L197.552 116.085L195.799 117.094L197.339 120.972L196.968 122.034L198.986 124.743L197.711 125.327L196.596 124.478L193.25 123.999L192.135 124.531L189.002 125.062L187.462 125.009L184.435 126.284H182.098L180.505 125.646L177.531 126.602L176.522 125.965L176.628 127.824L175.991 128.568L175.3 129.311L174.079 127.771L174.982 126.496L173.282 126.815L170.839 126.018L169.14 127.983L164.891 128.355L162.395 126.549L159.368 126.443L158.837 127.824L156.926 128.249L154.058 126.443L150.978 126.496L148.96 123.096L146.729 121.237L147.791 118.581L145.879 116.935L148.588 113.694L152.836 113.588L153.686 110.985L158.997 111.463L161.971 109.285L165.051 108.329L169.565 108.223L174.769 110.613L178.965 111.941L182.045 111.41L184.488 111.729L187.408 109.923Z" stroke="#465C58" stroke-width="0.4" stroke-linecap="round" stroke-linejoin="round"/>
<path d="M145.03 112.366L145.667 111.995L146.251 109.87L144.817 108.967L147.473 107.904L149.915 108.329L150.393 109.657L152.943 110.72L152.571 111.57L149.278 111.729L148.216 112.791L146.145 114.597L145.083 113.057L145.03 112.366Z" stroke="#465C58" stroke-width="0.4" stroke-linecap="round" stroke-linejoin="round"/>
<path d="M163.776 77.6791L164.998 79.1133L165.051 79.7507L168.609 80.9194L170.521 80.3882L172.432 81.9287L173.973 81.8755L178.062 82.9379L178.274 83.9472L177.584 85.647L178.54 87.5062L178.38 88.6217L175.831 88.8342L174.663 89.7904L174.875 91.2246L172.804 91.4902L171.211 92.6057L168.768 92.7651L166.644 94.04L167.175 96.1116L168.662 96.9084L171.37 96.6959L171.052 97.9177L168.184 98.502L164.838 100.414L163.192 99.7238L163.564 98.1833L160.43 97.174L160.802 96.5366L163.245 95.4211L162.342 94.6774L158.041 93.8275L157.616 92.5526L155.226 92.9776L154.536 94.8368L152.783 97.2803L151.509 96.6959L150.287 97.2803L149.013 96.6428L149.65 96.271L149.969 95.1555L150.553 94.04L150.234 93.4556L150.765 93.19L151.084 93.6681L152.677 93.7744L153.367 93.5088L152.836 93.19L152.943 92.6588L151.88 91.8089L151.296 90.4278L150.234 89.8966L150.287 88.7811L148.906 87.8781L147.844 87.7187L145.72 86.7094L144.021 87.0282L143.436 87.5062H142.321L141.79 88.303L139.878 88.6217L139.029 89.1529L137.701 88.303H136.002L134.302 87.9312L133.24 88.6749L132.975 87.7718L131.381 86.8688L131.753 85.5408L132.39 84.6378L132.975 84.8502L132.125 83.3629L134.143 80.6007L135.364 80.2288L135.524 79.3258L133.824 76.4573L135.046 76.298L136.32 75.448L138.338 75.3418L140.94 75.6074L143.968 76.4042L146.039 76.4573L147.048 76.9354L147.951 76.3511L148.747 77.1479L151.031 76.9885L152.146 77.3072L151.987 75.6605L152.677 74.9168L154.854 74.7575L155.81 74.8637L156.341 74.12L157.138 74.2794L159.74 73.9607L161.758 75.8199L161.28 76.5104L161.705 77.5197L163.776 77.6791Z" stroke="#465C58" stroke-width="0.4" stroke-linecap="round" stroke-linejoin="round"/>
<path d="M267.599 107.479L268.502 107.798L266.909 109.976L269.351 111.251L271.051 110.401L274.875 112.207L272.06 114.651L269.883 114.332L268.767 114.385L268.077 113.482L268.183 111.888L264.731 112.685L264.466 114.863L263.669 116.722L261.332 116.563L261.014 118.05L263.244 118.847L264.519 121.397L263.828 124.85L261.545 124.106H259.952L259.527 122.034L255.438 120.547L252.092 118.9L249.862 117.307L246.091 114.969L243.807 111.463L242.692 110.826L239.771 110.985L238.55 110.295L237.541 107.639L233.345 105.833L231.54 107.798L229.522 108.967L230.425 110.667L227.291 110.72L223.999 98.2896L230.371 96.3242L230.956 96.5898L235.841 98.9802L238.391 100.255L241.896 103.283L244.923 102.805L249.49 102.539L253.526 104.983L254.322 108.382L255.703 108.436L257.031 111.198L260.589 111.304L261.81 112.898H262.873L263.35 110.454L266.218 108.117L267.599 107.479Z" stroke="#465C58" stroke-width="0.4" stroke-linecap="round" stroke-linejoin="round"/>
<path d="M132.231 107.532L131.594 107.691L130.054 108.223L130.001 108.913L129.629 108.86L129.31 107.638L128.62 107.267L127.983 106.363L128.407 105.62L129.045 105.407L129.31 104.292L129.788 104.079L130.213 104.557L130.744 104.77L131.169 105.301L131.647 105.46L132.231 106.098L132.603 106.045L132.39 106.895L132.072 107.267L132.231 107.532Z" stroke="#465C58" stroke-width="0.4" stroke-linecap="round" stroke-linejoin="round"/>
<path d="M89.0558 79.0067L87.5688 78.21L85.9225 76.7757L83.5328 77.4663L81.6209 77.2007L82.9486 76.2976L85.0728 71.5169L88.5247 70.1357L90.649 70.242L91.127 71.3575L90.649 74.3322L90.0117 75.554H88.4717L89.0558 79.0067Z" stroke="#465C58" stroke-width="0.4" stroke-linecap="round" stroke-linejoin="round"/>
<path d="M52.0938 125.008L50.9255 125.858L49.4385 125.38L48.0047 125.752L48.4826 123.096L48.3233 121.024L47.0488 120.706L46.4646 119.431L46.7301 117.2L47.8984 115.978L48.164 114.597L48.8013 112.578V111.144L48.3233 109.922L48.2171 108.754L49.2261 107.904L50.3944 107.426L51.0317 109.072H52.6249L53.1028 108.648L54.7492 108.754L55.4395 110.454L54.165 111.357L54.0057 114.013L53.5808 114.491L53.4215 116.137L52.2 116.403L53.2622 118.422L52.4125 120.653L53.3684 121.662L52.9435 122.565L51.8814 123.84L52.0938 125.008Z" stroke="#465C58" stroke-width="0.4" stroke-linecap="round" stroke-linejoin="round"/>
<path d="M130.532 67.4798L125.858 67.5329L122.725 67.161L123.097 65.7799L126.443 64.7175L129.151 65.3018L130.319 65.7799L130.213 66.683L130.532 67.4798Z" stroke="#465C58" stroke-width="0.4" stroke-linecap="round" stroke-linejoin="round"/>
<path d="M196.49 17.4942L195.321 17.7067L188.152 17.3349L186.931 16.1131L182.735 15.3694L181.673 13.829L183.532 13.2447L182.682 11.7573L185.55 9.42003L183.426 9.10131L186.984 6.71093L185.656 5.48917L189.267 4.10806L194.737 2.40823L200.951 1.93015L203.606 0.973992L207.164 0.655273L209.395 1.66455L208.704 2.46134L202.65 3.78934L197.393 5.01109L192.772 7.56084L191.285 10.2168L189.533 12.8728L191.179 15.157L196.49 17.4942Z" stroke="#465C58" stroke-width="0.4" stroke-linecap="round" stroke-linejoin="round"/>
<path d="M431.697 107.639L430.954 107.054L429.945 105.301L431.272 105.248L429.201 101.264L426.705 98.3957L428.245 97.2271L431.91 97.8114L431.591 94.518L430.104 90.9058L430.263 89.6841L429.573 86.6563L425.909 87.6655L424.528 88.9404H420.492L417.305 85.8595L412.526 83.4691L407.215 82.4067L403.923 79.2195L401.533 77.2009L399.515 75.7667L395.426 72.4733L392.239 71.3047L387.672 70.2954L384.38 70.4016L381.671 70.9859L380.768 72.6327L382.733 73.3763L384.061 75.1824L383.37 76.2448L383.477 79.6976L384.486 81.1849L382.149 83.2566L378.219 81.9817L375.245 82.3004L373.174 81.1849L371.368 80.8131L369.032 83.1504L365.899 83.6816L363.987 84.5315L360.376 84.0003H357.933L355.33 82.3004L351.825 80.76L348.958 80.2819L345.931 80.7069L343.806 81.3443L339.292 79.9632L337.38 77.5197L333.822 76.6698L331.273 76.2448L327.556 74.9168L326.866 78.3165L328.99 80.2288L327.715 82.566L323.467 81.7161L320.811 81.6099L318.262 80.0694L315.501 80.0163L312.686 79.007L309.553 80.5475L305.995 83.3628L303.499 83.9472L302.596 84.2128L300.259 82.1942L297.073 82.6723L295.32 81.2381L293.196 80.6006L291.019 78.6883L289.266 78.104L285.974 78.9539L281.513 77.0947L280.929 78.7945L271.21 70.5079L266.749 68.0112L267.174 66.9488L262.288 70.0298L259.952 70.1891L259.367 68.4362L255.597 67.3207L253.313 68.1175L250.977 64.7709L246.144 64.0804L244.498 65.4084L238.709 66.6301L237.806 67.4269L228.778 68.5424L228.035 69.6579L230.743 71.889L228.619 72.7389L229.416 73.5888L227.557 75.1824L232.549 77.4665L232.443 79.007L228.725 78.8477L228.3 79.8569L224.424 78.1571L220.334 78.2102L217.998 79.5913L214.493 78.2633L208.12 75.9792L204.084 76.0854L199.782 79.6445L200.101 82.0349L196.915 80.1225L195.746 83.7878L196.702 84.4252L195.799 86.975L198.614 89.206L200.526 89.0998L202.809 91.3308L202.916 93.0306L204.402 93.615L203.659 95.5804L201.216 96.1116L199.304 99.5644L202.491 102.805L202.703 105.036L206.58 109.02L205.252 110.401L204.934 111.251L203.659 110.985L201.375 108.967L200.579 108.86L198.667 108.064L197.552 106.682L194.843 105.992L193.303 106.523L192.666 105.886L188.63 104.239L184.541 103.708L182.098 103.123L181.886 103.548L177.849 100.68L174.557 99.405L171.848 97.4396L173.76 96.9084L175.46 94.1462L173.707 92.8182L177.371 91.437L177.159 90.6934L174.875 91.2246L174.663 89.7903L175.831 88.8342L178.38 88.6217L178.54 87.5062L177.584 85.647L178.274 83.9472L178.062 82.9379L173.973 81.8755L172.433 81.9286L170.521 80.3881L168.609 80.9193L165.051 79.7507L164.998 79.1133L163.776 77.679L161.705 77.5197L161.28 76.5104L161.758 75.8198L159.74 73.9606L157.138 74.2794L156.341 74.12L155.81 74.8637L154.854 74.7574L153.792 72.6327L152.996 71.5703L153.421 71.2515L155.492 71.3578L156.341 70.6672L155.439 69.8173L153.633 69.233V68.6487L152.518 68.0644L150.5 65.9396L150.871 65.0896L150.287 63.5492L147.738 62.8055L146.464 63.1773L145.986 62.3805L143.171 61.5837L142.056 59.6714L141.525 58.131L140.197 57.4404L141.047 56.4311L139.772 53.4564L141.153 51.6503L140.675 51.1191L143.065 49.3662L140.197 47.8788L144.446 43.948L146.251 42.1419L146.729 40.6014L142.799 38.5298L143.277 36.5112L140.675 34.2802L141.578 31.7304L138.126 28.3839L139.666 26.1529L135.789 24.1874L135.577 22.1689L137.276 21.9033L140.675 20.7878L142.64 19.7785L146.729 21.4783L152.943 22.1689L162.342 25.4623L164.52 26.8434L165.316 28.8088L163.351 30.3493L159.9 31.1461L149.172 28.9151L147.632 29.2869L151.934 31.4648L152.465 32.8459L153.474 35.9269L156.713 36.8299L158.731 37.6267L158.625 36.1394L156.819 34.8645L157.935 33.6959L164.095 35.6082L165.794 34.8645L163.511 32.6335L167.812 29.765L169.99 29.9244L172.433 30.9336L173.017 28.9151L170.521 27.1621L170.946 25.4092L168.662 23.6031L175.194 24.5593L177.106 26.1529L174.397 26.5247L175.035 28.1714L177.212 29.1807L180.399 28.5432L180.186 26.6841L184.275 25.2498L190.86 22.8063L192.56 22.9126L191.232 24.6655L194.1 24.9842L195.215 23.9749L199.304 23.9218L201.96 22.7001L205.358 24.453L206.845 22.5407L203.659 20.894L204.296 19.9378L211.2 20.7878L214.705 21.6908L224.583 24.9842L225.167 23.4969L222.034 21.9564L221.609 21.3721L218.794 21.0534L218.688 19.7254L216.192 17.4943L215.608 16.5913L217.891 14.0947L217.573 11.5449L218.741 11.0137L224.795 11.7574L226.335 13.2979L225.857 15.5289L227.822 16.4319L229.84 18.3974L231.858 22.3282L235.417 24.0812L235.682 26.0466L233.823 30.19L236.638 30.6149L236.904 29.5525L238.922 28.8088L238.656 27.3746L239.665 25.9404L237.328 24.2937L237.116 22.3814L234.567 22.1689L233.027 20.5753L232.814 17.7068L228.46 15.4227L230.956 13.5635L228.991 11.598L230 11.5449L232.23 13.0323L233.345 15.7414L236.001 16.2726L233.558 14.254L236.266 13.1385L240.568 12.9792L245.666 14.5727L242.002 12.2886L239.4 9.36701L242.533 8.83582L247.578 8.94206L251.72 8.57022L248.746 7.1891L249.437 5.43615L251.667 5.32991L254.269 4.05504L259.208 3.6832L259.102 2.93952L264.041 2.72704L266.324 3.31136L269.192 1.93025L272.91 1.98337L272.113 0.814732L272.591 -0.247663L275.884 -1.31006L280.291 -0.460142L278.433 0.177295L283.425 0.549133L285.602 1.82401L286.611 1.18657L292.4 1.23969L298.56 2.51456L301.481 3.47072L302.808 4.85183L301.534 5.64863L298.029 7.13598L297.445 7.93278L300.419 8.30462L304.242 8.99517L305.517 8.46398L308.597 10.2169L308.703 9.52637L311.465 9.10141L318.687 9.52637L320.705 10.8012L329.946 11.2262L327.397 9.15453L332.442 9.63261L335.681 9.57949L340.939 11.0137L344.125 12.7667L344.337 13.9353L349.701 16.1663L354.481 17.2819L352.888 14.3603L357.879 15.582L360.535 14.8383L365.739 15.6883L366.27 14.9446L370.306 15.3164L365.314 12.7136L366.43 11.5449L387.885 13.351L392.08 14.9977L400.736 17.1225L408.596 16.5913L413.535 17.0694L417.04 18.238L419.748 20.3097L423.625 21.1065L425.696 20.5222L429.414 20.469L434.352 21.0002L438.017 20.6815L445.611 23.2313L446.939 22.3282L442.425 20.5222L441.469 19.2473L449.594 20.0441L453.842 19.8847L462.233 21.2127L467.278 22.4876L484.91 34.2271L483.847 35.5551L480.555 35.3426L484.91 36.9362L489.742 39.4328L491.973 40.2296L493.991 41.5045L494.522 42.3013L489.211 41.6638L485.706 43.948L484.113 44.3198L483.263 46.4977L482.201 48.41L483.104 49.8443L476.997 47.6664L473.757 50.1099L471.261 48.9412L470.518 50.3223L466.8 49.8443L468.447 51.9159L469.031 54.9969L470.571 56.2718L474.182 56.9623L479.015 61.5837L476.837 61.7431L478.643 64.3991L481.139 65.7802L478.484 67.4269L481.351 71.1453L478.324 71.9421L480.714 75.2355L479.811 78.3165L476.784 76.0323L471.208 71.3047L462.605 64.0804L459.153 59.6714L459.206 57.7591L457.719 56.2718L460.746 55.5812L460.64 51.5972L461.012 48.41L462.339 45.9134L458.834 41.5576L456.338 41.8232L458.038 44.3729L456.126 47.7726L449.594 43.948L444.761 45.0104V50.2161L448.85 52.1284L444.336 52.9783L440.938 53.2971L438.654 51.0129L434.406 50.5348L433.078 52.0753L425.059 51.5441L418.049 52.4471L416.19 58.6622L413.535 66.2052L417.89 66.6301L420.917 68.6487L423.997 69.3392L424.209 67.7456L427.183 67.9581L433.981 71.5171L436.477 74.2794L437.22 77.5728L440.141 81.5037L442.956 86.7625L442.425 91.5964L443.115 93.8806L442.053 97.8114L440.938 101.689L440.46 103.655L438.017 105.62L436.371 105.673L433.609 104.026L431.432 106.523L431.697 107.639Z" stroke="#465C58" stroke-width="0.4" stroke-linecap="round" stroke-linejoin="round"/>
<path d="M67.8663 103.601L68.9284 104.876L73.9735 106.417L74.9826 105.673L78.0627 107.213L81.196 106.789L81.4084 108.754L78.8062 110.985L75.3012 111.729L75.0356 112.844L73.3363 114.703L72.2741 117.466L73.3363 119.431L71.7431 120.918L71.1058 123.149L68.9816 123.84L67.0166 126.443L63.4054 126.496L60.7501 126.443L58.9445 127.611L57.8292 128.886L56.4485 128.621L55.4395 127.452L54.696 125.54L52.0938 125.009L51.8813 123.84L52.9435 122.565L53.3683 121.662L52.4124 120.653L53.2621 118.422L52.2 116.403L53.4214 116.138L53.5808 114.491L54.0056 114.013L54.1649 111.357L55.4395 110.454L54.7491 108.754L53.1028 108.648L52.6248 109.073H51.0317L50.3944 107.426L49.226 107.904L48.217 108.754L48.4825 106.364L47.4204 104.929L51.3503 102.486L54.6429 103.07H58.3072L61.1749 103.654L63.4585 103.442L67.8663 103.601Z" stroke="#465C58" stroke-width="0.4" stroke-linecap="round" stroke-linejoin="round"/>
<path d="M99.2522 107.851L98.4556 110.454L97.1811 109.763L96.4907 107.532L96.9687 106.257L98.668 104.982L99.2522 107.851Z" stroke="#465C58" stroke-width="0.4" stroke-linecap="round" stroke-linejoin="round"/>
<path d="M87.9406 83.2032L88.5248 83.4688L89.2683 83.4157L90.5428 84.2656L94.3665 84.9031L93.0919 87.1341L92.8795 89.5245L92.1891 90.1088L90.9677 89.7901L91.0739 90.64L89.1621 92.4992V94.0397L90.4366 93.5085L91.3925 94.9427L91.3394 95.8989L92.136 97.1737L91.2332 98.183L92.0298 100.786L93.5168 101.211L93.2512 102.645L90.8615 104.557L85.4446 103.654L81.5148 104.77L81.1961 106.788L78.0628 107.213L74.9827 105.673L73.9737 106.417L68.9286 104.876L67.8664 103.601L69.3003 101.583L69.8314 94.8896L67.123 91.3837L65.158 89.6838L61.122 88.409L60.9095 85.9655L64.3615 85.2749L68.7693 86.1248L67.9727 82.3533L70.4687 83.7876L76.5228 81.2378L77.3194 78.5287L79.5498 77.8381L79.9747 79.0068L81.143 79.0599L82.4176 80.3879L84.2763 81.9284L85.6039 81.6628L87.9406 83.2032Z" stroke="#465C58" stroke-width="0.4" stroke-linecap="round" stroke-linejoin="round"/>
<path d="M220.547 161.98L220.707 162.034L220.813 161.98L221.026 162.352L220.973 162.459L221.026 162.937V163.308L220.92 163.521L220.866 163.308L220.547 162.884L220.6 162.671L220.494 162.299V162.087L220.547 161.98Z" stroke="#465C58" stroke-width="0.4" stroke-linecap="round" stroke-linejoin="round"/>
<path d="M169.619 131.915L169.673 132.021L169.832 132.233L169.619 132.18H169.46L169.247 132.286L169.087 132.127V131.968L169.247 131.915L169.353 131.968L169.619 131.915Z" stroke="#465C58" stroke-width="0.4" stroke-linecap="round" stroke-linejoin="round"/>
<path d="M168.715 132.18V132.233L168.609 132.339L168.556 132.658L168.503 132.764H168.344L168.237 132.87L167.972 132.976L167.866 133.029L167.547 133.189L167.334 133.136L167.069 133.189L166.91 133.401L166.803 133.242L166.644 133.295H166.538L166.379 133.136L166.166 133.295H165.901L165.635 133.189L165.37 133.136L165.157 132.976L164.998 132.658L164.838 132.498L164.732 132.126L164.626 131.967L164.679 131.808L164.945 131.967L165.157 131.914L165.263 131.755L165.316 131.595L165.476 131.542L165.582 131.595L165.688 131.489H165.794L165.847 131.701L166.113 131.808L166.166 131.914H166.485L166.803 131.648L167.016 131.701L167.175 131.595L167.334 131.648L167.547 131.755L167.653 131.595H167.812L167.972 131.808V132.126L168.131 132.02L168.29 132.126L168.344 132.073L168.715 132.18Z" stroke="#465C58" stroke-width="0.4" stroke-linecap="round" stroke-linejoin="round"/>
<path d="M56.7144 44.4263L56.9274 44.5325H57.0872L57.1404 44.6387V44.8512L57.2469 45.0106L57.1937 45.1168L56.8742 44.9043L56.7677 44.6919L56.6612 44.5856L56.5547 44.4263H56.7144Z" stroke="#465C58" stroke-width="0.4" stroke-linecap="round" stroke-linejoin="round"/>
<path d="M56.8738 43.5761L57.2998 43.6823L57.4063 43.7885L57.353 44.001L57.2998 44.0541L57.0868 43.7885L56.8206 43.7354L56.7141 43.5229L56.8738 43.5761Z" stroke="#465C58" stroke-width="0.4" stroke-linecap="round" stroke-linejoin="round"/>
<path d="M56.1937 42.8532L56.2362 42.9382H56.3955V43.0976H56.1831L56.0769 43.2038L55.7582 43.0976L55.652 43.0445L55.5458 42.8851L55.8114 42.832L55.8645 42.7789L56.1603 42.8282L56.0238 42.7257L56.13 42.3008L56.3955 42.3539L56.5548 42.6195V42.6726L56.8735 42.7789L57.0328 43.0445L57.1921 43.1507L57.139 43.4694L56.8735 43.2569L56.7673 43.1507L56.6611 43.0976L56.608 42.9913L56.5017 42.8851H56.2362L56.1937 42.8532Z" stroke="#465C58" stroke-width="0.4" stroke-linecap="round" stroke-linejoin="round"/>
<path d="M58.1481 42.5139L58.0418 42.4073L58.2012 42.3008L58.1481 42.5139Z" stroke="#465C58" stroke-width="0.4" stroke-linecap="round" stroke-linejoin="round"/>
<path d="M56.8735 42.7797L56.661 42.6735L56.5017 42.5141L56.4486 42.3548L56.5017 42.3017L56.7141 42.2485H56.8735L57.1921 42.461L57.139 42.5673L57.1921 42.6735L57.5107 42.7797V42.886L57.2983 43.0453L56.8735 42.7797Z" stroke="#465C58" stroke-width="0.4" stroke-linecap="round" stroke-linejoin="round"/>
<path d="M58.0406 42.4603L57.8817 42.6728L57.7228 42.5666H57.5638L57.6698 42.4072L57.6168 42.1947L57.6698 42.1416L57.7757 42.3541L58.0406 42.4603Z" stroke="#465C58" stroke-width="0.4" stroke-linecap="round" stroke-linejoin="round"/>
<path d="M57.565 42.4638H57.4582L57.3513 42.2493L57.4048 42.0884L57.5116 42.3029L57.565 42.4638Z" stroke="#465C58" stroke-width="0.4" stroke-linecap="round" stroke-linejoin="round"/>
<path d="M114.23 129.258L114.124 129.417L113.857 129.311L113.591 129.152V128.886L113.538 128.833H113.857L114.07 128.992L114.177 129.099L114.23 129.258Z" stroke="#465C58" stroke-width="0.4" stroke-linecap="round" stroke-linejoin="round"/>
<path d="M113.378 128.674L113.113 128.621V128.514L113.325 128.461L113.537 128.621L113.378 128.674Z" stroke="#465C58" stroke-width="0.4" stroke-linecap="round" stroke-linejoin="round"/>
<path d="M21.0287 156.72L20.869 156.986L20.656 157.251L20.4963 157.039H20.2833L20.1768 156.933L20.2833 156.773L20.4963 156.826L20.7092 156.614L20.869 156.508L20.9755 156.561L21.0287 156.72Z" stroke="#465C58" stroke-width="0.4" stroke-linecap="round" stroke-linejoin="round"/>
<path d="M28.2493 155.499V155.765L28.3555 155.977L28.2493 156.349L28.3024 156.508L28.09 156.721L27.8245 156.827L27.7183 156.933L27.3996 156.827L27.1341 156.562L27.0279 156.349V156.03L27.3465 155.818L27.3996 155.552V155.446L27.7183 155.499H27.9307L28.09 155.552L28.2493 155.499Z" stroke="#465C58" stroke-width="0.4" stroke-linecap="round" stroke-linejoin="round"/>
<path d="M22.9926 155.924H22.8862L22.7264 155.818L22.6199 155.659L22.6732 155.446L22.7264 155.287H22.8862H23.0459L23.3121 155.499L23.3654 155.659L23.0991 155.924H22.9926Z" stroke="#465C58" stroke-width="0.4" stroke-linecap="round" stroke-linejoin="round"/>
<path d="M26.2312 154.065V154.171L25.9126 154.33L25.7002 154.596L25.5409 154.702V154.915L25.3284 155.287L25.2753 155.499L25.0098 155.818L24.9567 155.924H24.8505L24.5318 156.03L24.4787 155.977L24.4256 155.765L24.2663 155.552L24.2132 155.446L24.107 155.287V155.127L23.8946 154.809L24.1601 154.649L24.3194 154.755L24.6381 154.649H24.8505L25.116 154.543L25.3815 154.33V154.224L25.7002 154.065H26.0188L26.1781 154.012L26.2312 154.065Z" stroke="#465C58" stroke-width="0.4" stroke-linecap="round" stroke-linejoin="round"/>
<path d="M31.6479 155.552L31.4886 155.765L31.2762 155.818L31.1169 155.765H30.9044V155.659H31.0638L31.3824 155.552L31.5948 155.393L31.7541 155.234L31.8073 154.968L31.8604 154.809L31.9666 154.543L32.1259 154.331L32.2852 154.012L32.3914 153.587L32.4976 153.481L32.7101 153.427L32.8694 153.587L32.9225 153.852L32.8694 154.118L32.8163 154.384V154.649L32.7632 154.702L32.6039 155.074L32.4445 155.234L32.1259 155.287L31.7541 155.446L31.6479 155.552Z" stroke="#465C58" stroke-width="0.4" stroke-linecap="round" stroke-linejoin="round"/>
<path d="M21.2403 153.162L21.4 153.109L21.5065 153.268L21.613 153.534L21.5065 153.693L21.5598 153.906L21.2403 154.437L21.1871 154.384L21.1338 154.171L20.9208 153.693L20.8676 153.534L20.8143 153.428L20.9208 153.215L21.0806 153.109L21.2403 153.162Z" stroke="#465C58" stroke-width="0.4" stroke-linecap="round" stroke-linejoin="round"/>
<path d="M34.0377 152.099V152.312L33.9315 152.578L33.5598 152.843L33.2942 152.896L33.0818 153.162L32.8163 153.056V153.003L32.9225 152.79V152.578L33.0287 152.418L33.188 152.312H33.3473L33.5067 152.153H33.7722L33.8253 152.099L33.9315 151.834L34.0377 151.781L34.1439 151.887L34.0377 152.099Z" stroke="#465C58" stroke-width="0.4" stroke-linecap="round" stroke-linejoin="round"/>
</g>
<defs>
<clipPath id="clip0_1113_12120">
<rect width="276" height="171" rx="20" fill="white"/>
</clipPath>
</defs>
</svg>
