<svg width="286" height="49" viewBox="0 0 286 49" fill="none" xmlns="http://www.w3.org/2000/svg">
<path d="M79.6809 22.3377L47.0383 0.430526C46.2611 -0.0941281 45.2171 -0.000856273 44.5443 0.663705L40.1711 4.95421L36.9579 2.62241C36.3894 2.20269 35.6006 2.27264 35.125 2.78564L31.3202 6.74969L28.2926 4.33628C27.8866 4.00983 27.295 4.05647 26.9354 4.44121L23.3742 8.38195L20.6829 6.05015C20.4509 5.81697 20.0797 5.81697 19.8477 6.05015L16.7621 9.68775L14.1173 7.20439C14.0245 7.11112 13.8969 7.06448 13.7693 7.07614C13.6417 7.07614 13.5257 7.1461 13.4445 7.25103L0.104401 23.7252C-0.0348002 23.9 -0.0348002 24.1565 0.104401 24.3314L13.0037 40.8172C13.0965 40.9222 13.2241 40.9921 13.3633 40.9921C13.4793 40.9921 13.5953 40.9571 13.6765 40.8755L16.3909 38.3805L19.3605 41.9715C19.5693 42.228 19.9521 42.2629 20.2073 42.0531L22.9682 39.7213L26.4482 43.662C26.7962 44.0584 27.3878 44.1167 27.8054 43.7903L30.8794 41.3652L34.603 45.3642C35.0786 45.8772 35.8674 45.9588 36.4358 45.5508L39.7187 43.219L43.9643 47.4978C44.6255 48.174 45.6811 48.2906 46.4699 47.766L79.6577 25.8005C80.6089 25.1709 80.8757 23.8884 80.2493 22.9207C80.2493 22.9207 80.2493 22.9207 80.2493 22.909C80.0985 22.6875 79.9129 22.4893 79.6925 22.3377H79.6809ZM36.2966 5.65375L38.1063 6.98287L35.1714 9.86264L33.5242 8.54517L36.2966 5.65375ZM15.7065 25.031L22.0401 31.8864L20.2537 33.5187L11.9597 24.0516L20.5205 14.5612L22.2722 16.1818L15.7181 23.0256C15.1845 23.5853 15.1845 24.4713 15.7181 25.031H15.7065ZM18.6877 24.0516L24.3602 18.1289L25.5782 19.2947L22.2374 22.5593C21.4369 23.3754 21.4369 24.7045 22.2374 25.5206L25.5202 28.7852L24.2442 29.9511L18.6877 24.0516ZM26.2394 18.6185L24.9982 17.4526L28.1418 14.1648L29.5338 15.3307L26.2394 18.6185ZM28.5594 22.1162L30.6474 24.0866L28.4898 26.0686L26.541 24.1099L28.5594 22.1162ZM26.1466 29.4964L29.3134 32.7375L27.8402 33.9034L24.801 30.6389L26.1466 29.4964ZM29.151 26.7448L31.645 24.413C31.8306 24.2265 31.8422 23.9234 31.6566 23.7368C31.6566 23.7368 31.6566 23.7368 31.645 23.7252L29.2206 21.4517L32.6194 18.1172L39.4403 24.04L32.4802 30.021L29.151 26.7448ZM40.7511 24.5763C41.0063 24.3431 41.0411 23.9583 40.8207 23.6902L40.7511 23.6202L33.4894 17.2661L36.8882 13.9316L49.5091 24.0866L36.5866 34.2182L33.2922 30.8954L40.7511 24.5763ZM32.109 10.0259L33.6402 11.3084L30.3574 14.5262L29.0002 13.2904L32.109 10.0259ZM27.8402 6.53983L29.8702 8.2537L26.831 11.4133L24.917 9.72273L27.8402 6.53983ZM24.0934 10.5855L25.9842 12.2411L22.9218 15.4473L21.1817 13.8034L24.0934 10.5855ZM20.3581 7.32098L22.5506 9.30301L19.7201 12.4626L17.6553 10.5855L20.3581 7.32098ZM13.3981 39.7912L1.05561 24.0283L13.8505 8.2537L16.1705 10.4223L4.87203 23.6202C4.67483 23.8534 4.67483 24.2032 4.87203 24.4364L15.7993 37.6576L13.3981 39.7912ZM6.12484 24.04L17.0405 11.2151L19.0705 13.1272L9.89487 23.3288C9.53526 23.7252 9.53526 24.3314 9.89487 24.7278L18.8037 34.9061L16.7041 36.8298L6.12484 24.04ZM19.9057 40.7123L17.2957 37.5527L19.4069 35.6173L22.1678 38.7769L19.9057 40.7123ZM20.8801 34.2416L22.6782 32.5743L25.6478 35.7689L23.7222 37.4011L20.8801 34.2416ZM27.2602 41.5401L24.4994 38.3805L26.483 36.6666L29.4294 39.8379L27.2602 41.5401ZM28.6638 34.8245L30.1602 33.5537L33.3502 36.7716L31.703 38.0657L28.6638 34.8245ZM35.7514 42.4378L33.0718 39.5697L34.8002 38.2289L37.6307 41.0854L35.7514 42.4378ZM38.0019 35.6873L51.7248 24.8794C52.1772 24.5413 52.27 23.8884 51.9336 23.422C51.9336 23.422 51.9335 23.422 51.9219 23.4104C51.8755 23.3521 51.8292 23.2938 51.7712 23.2471L38.3615 12.4393L41.4123 9.4196L61.202 24.0516L41.0063 38.6603L38.0019 35.6873ZM45.5883 43.3239L43.0363 40.7239L64.4384 25.2408C65.088 24.7628 65.2272 23.8534 64.7516 23.2005C64.6704 23.0839 64.566 22.979 64.45 22.8857L43.4887 7.41425L46.1683 4.75601L74.8669 24.0516L45.5883 43.3239ZM103.473 17.8957H109.11C109.412 17.8957 109.69 17.7674 109.888 17.5459C110.096 17.3477 110.212 17.0562 110.212 16.7648C110.212 16.4616 110.096 16.1818 109.876 15.9719C109.656 15.7737 109.377 15.6688 109.087 15.6688H96.7215C96.4314 15.6688 96.1414 15.7621 95.9211 15.9486C95.689 16.1352 95.5614 16.4266 95.5614 16.7298V30.9187C95.5614 31.082 95.5614 31.2569 95.5614 31.4201C95.7006 31.9331 96.1994 32.2595 96.7215 32.2012H109.041C109.342 32.2012 109.644 32.0846 109.853 31.8631C110.05 31.6533 110.166 31.3734 110.166 31.082C110.131 30.464 109.621 29.9744 109.006 29.9744H97.7771V26.4067H104.842C105.132 26.4067 105.41 26.2785 105.619 26.0686C105.816 25.8471 105.944 25.5673 105.955 25.2758C105.955 24.9727 105.839 24.6812 105.619 24.483C105.41 24.2964 105.143 24.1915 104.865 24.1799H97.7771V17.919L103.473 17.8957ZM129.596 17.2311C129.805 17.0096 129.921 16.7181 129.921 16.415C129.932 16.1235 129.816 15.832 129.608 15.6222C129.167 15.2141 128.482 15.2141 128.042 15.6222L123.75 19.9127L121.43 22.2445C119.342 20.1342 117.196 17.9073 115.05 15.6455C114.852 15.424 114.574 15.2957 114.272 15.2957C113.971 15.2957 113.681 15.4007 113.472 15.6105C113.252 15.8087 113.136 16.1002 113.136 16.3917C113.136 16.6948 113.24 16.9863 113.449 17.2078L119.875 23.8418C117.335 26.43 115.142 28.7035 113.31 30.6273C113.147 30.8255 113.054 31.0703 113.043 31.3268V31.3851C113.043 31.6882 113.159 31.9681 113.379 32.1779L113.704 32.4927H114.168C114.458 32.4927 114.736 32.3645 114.934 32.1429L121.406 25.4274C123.726 27.7592 125.896 29.9744 127.995 32.073C128.436 32.4927 129.132 32.4927 129.573 32.073C129.782 31.8631 129.898 31.5717 129.886 31.2685C129.886 30.977 129.77 30.6972 129.55 30.499C127.438 28.4004 125.223 26.1735 122.961 23.8651C125.791 21.0786 128.03 18.7468 129.596 17.2311ZM147.704 16.415C146.695 15.902 145.604 15.5755 144.479 15.4706C142.762 15.2957 141.045 15.2141 139.317 15.2374H134.665C134.34 15.2374 134.039 15.3773 133.83 15.6222C133.621 15.8437 133.517 16.1235 133.517 16.4266V31.3734C133.517 31.6766 133.633 31.9797 133.853 32.1896C134.062 32.3878 134.34 32.5044 134.631 32.5044C134.932 32.5044 135.211 32.3878 135.419 32.1663C135.617 31.9564 135.721 31.6882 135.733 31.3968V27.8991H140.117C141.544 27.8991 142.983 27.8291 144.398 27.6659C145.535 27.5726 146.637 27.2462 147.646 26.6982C148.458 26.1735 149.084 25.4274 149.467 24.5413C149.908 23.5503 150.14 22.466 150.128 21.3817C150.128 20.3441 149.931 19.3064 149.513 18.3504C149.107 17.5459 148.481 16.8697 147.704 16.415ZM147.507 23.6785C147.298 24.2148 146.915 24.6812 146.428 24.9843C145.697 25.3458 144.92 25.5556 144.108 25.6139C142.797 25.7655 141.486 25.8354 140.175 25.8238H137.426L135.721 25.7422V17.5809H139.816C141.196 17.5809 142.565 17.6392 143.934 17.7791C144.815 17.8374 145.685 18.0589 146.486 18.432C146.938 18.7235 147.298 19.1548 147.507 19.6562C148.017 20.997 148.017 22.4776 147.507 23.8184V23.6785ZM166.635 26.3951L164.06 21.883C162.494 19.1315 161.38 17.2194 160.742 16.0536C160.568 15.6688 160.185 15.424 159.768 15.4356C159.362 15.424 158.991 15.6338 158.793 15.9836L158.411 16.6365C158.237 16.9163 157.9 17.5109 157.401 18.4436L157.123 18.945C155.963 20.997 154.026 24.3547 151.416 28.96L150.441 30.6856C150.337 30.8605 150.279 31.0587 150.279 31.2685C150.279 31.6416 150.476 31.9914 150.813 32.1779C151.161 32.4111 151.625 32.4111 151.973 32.1779C152.147 32.0846 152.297 31.9447 152.39 31.7699L154.536 27.9923H164.976L167.041 31.6882L167.111 31.8048C167.227 31.9564 167.378 32.0846 167.552 32.1779C167.714 32.2712 167.911 32.3178 168.097 32.3178C168.282 32.3178 168.468 32.2712 168.63 32.1663C168.967 31.9797 169.176 31.6183 169.176 31.2335C169.176 31.047 169.129 30.8605 169.036 30.6972C168.654 29.9627 167.83 28.4937 166.635 26.3951ZM157.668 25.8121H155.754L159.037 19.9826L159.721 18.8167C160.441 20.1225 161.531 22.0346 163.039 24.6462L163.712 25.8121H157.668ZM189.418 16.5665C189.418 16.2751 189.302 15.9953 189.093 15.7971C188.652 15.4007 187.979 15.4007 187.538 15.7971C187.318 16.0069 187.19 16.3101 187.202 16.6132V28.7618L184.882 26.6049L182.956 24.7861L179.198 21.2185L173.572 15.8903C173.131 15.4706 172.424 15.4706 171.983 15.8903C171.786 16.1002 171.67 16.38 171.67 16.6715V31.2335C171.67 31.5367 171.797 31.8165 172.006 32.0264C172.215 32.2246 172.482 32.3295 172.76 32.3411C173.062 32.3645 173.363 32.2479 173.584 32.0264C173.781 31.8165 173.885 31.5367 173.885 31.2452V19.2015C178.177 23.3171 182.748 27.6776 187.538 32.1663C187.736 32.3295 187.968 32.4228 188.223 32.4344H188.281C188.582 32.4344 188.872 32.3178 189.081 32.0963C189.278 31.8748 189.394 31.5833 189.383 31.2802V23.8884C189.383 23.8884 189.429 18.3037 189.418 16.5665ZM206.632 16.7531C206.075 16.4733 205.484 16.2634 204.881 16.1002C204.347 15.9603 203.802 15.8554 203.245 15.7971C202.711 15.7971 201.969 15.7271 201.053 15.7271H194.951C194.626 15.7154 194.325 15.8554 194.127 16.1118C193.93 16.3334 193.826 16.6248 193.837 16.9163L193.942 31.2102C193.942 31.5367 194.081 31.8398 194.313 32.0613C194.533 32.2828 194.812 32.4228 195.113 32.4694H196.853C199.893 32.4694 202.062 32.4694 203.315 32.2945C204.509 32.2362 205.681 31.9914 206.795 31.5717C208.047 30.977 209.057 29.9627 209.637 28.7035C210.344 27.2578 210.704 25.6606 210.681 24.04C210.715 22.4776 210.344 20.9387 209.602 19.5629C208.941 18.3271 207.897 17.3477 206.632 16.7531ZM207.792 27.7009C207.537 28.2372 207.189 28.7269 206.748 29.1233C206.365 29.4381 205.913 29.6712 205.426 29.7878C204.707 29.9627 203.976 30.0676 203.233 30.1143C201.807 30.2309 199.753 30.2892 197.085 30.2892H196.239L196.157 18.0006H201.412C202.236 17.9773 203.048 18.0472 203.86 18.1988C204.498 18.3387 205.124 18.5486 205.727 18.8167C206.667 19.2598 207.421 20.0293 207.85 20.9736C208.303 21.988 208.535 23.0956 208.511 24.2148C208.511 25.4157 208.245 26.6166 207.734 27.7009H207.792ZM228.301 26.3951L225.726 21.883L222.397 16.0536C222.234 15.6688 221.852 15.424 221.434 15.4356C221.028 15.424 220.657 15.6338 220.459 15.9836L220.077 16.6365C219.903 16.9163 219.566 17.5109 219.056 18.4436L218.789 18.945C217.629 20.997 215.68 24.3547 213.082 28.96L212.107 30.6856C211.794 31.1636 211.922 31.8048 212.386 32.1196C212.409 32.1429 212.444 32.1546 212.479 32.1779C212.827 32.4111 213.291 32.4111 213.639 32.1779C213.813 32.0846 213.952 31.9447 214.056 31.7699L216.202 27.9923H226.642L228.73 31.6533L228.812 31.7699C228.928 31.9214 229.067 32.0497 229.241 32.1429C229.403 32.2362 229.6 32.2828 229.786 32.2828C229.983 32.2828 230.169 32.2362 230.331 32.1313C230.668 31.9447 230.876 31.5833 230.865 31.1986C230.865 31.012 230.83 30.8255 230.737 30.6623C230.308 29.9627 229.496 28.4937 228.301 26.3951ZM219.323 25.8121H217.42L220.703 19.9826L221.376 18.8167C222.107 20.1225 223.197 22.0346 224.705 24.6462L225.366 25.8121H219.323ZM248.323 24.4247V24.3547C248.323 24.3547 248.242 24.2382 248.195 24.1915C247.894 23.8184 247.557 23.4803 247.174 23.1888C247.685 22.6409 248.033 21.953 248.16 21.2185C248.23 20.9037 248.265 20.5889 248.253 20.2624C248.253 19.5279 248.079 18.8051 247.754 18.1522C247.43 17.4993 246.942 16.9396 246.339 16.5199C245.562 16.0069 244.68 15.6688 243.752 15.5406C242.697 15.389 241.641 15.3307 240.574 15.3424H235.087C234.6 15.3307 234.171 15.6455 234.032 16.1118L233.974 16.4383L233.834 31.2102C233.834 31.5017 233.95 31.7932 234.159 32.003C234.368 32.2012 234.646 32.3178 234.936 32.3295H241.282C242.616 32.3295 243.671 32.3295 244.425 32.2246C245.121 32.1663 245.817 32.0147 246.478 31.7699C247.325 31.4434 248.044 30.8605 248.555 30.1026C249.054 29.3331 249.32 28.4354 249.297 27.5143C249.297 26.9314 249.204 26.3601 249.03 25.8121C248.868 25.3108 248.624 24.8444 248.323 24.4247ZM236.143 17.6742H237.662C238.718 17.6742 239.623 17.6042 240.342 17.6042C241.305 17.5925 242.268 17.6392 243.219 17.7558C243.88 17.8257 244.518 18.0706 245.075 18.4436C245.365 18.6185 245.597 18.8867 245.748 19.1898C245.91 19.5163 246.003 19.8777 245.991 20.2391C246.003 20.4373 246.003 20.6239 245.991 20.8221C245.922 21.2418 245.701 21.6149 245.376 21.883C245.052 22.1512 244.634 22.2911 244.216 22.2911H236.166L236.143 17.6742ZM247.082 28.004C247 28.8318 246.444 29.5313 245.666 29.7995C245.168 29.9977 244.634 30.1026 244.1 30.1376C243.428 30.2076 242.453 30.2425 241.212 30.2425H236.015V24.5763H244.622C244.959 24.6346 245.295 24.7512 245.597 24.9144C245.875 25.1009 246.119 25.3341 246.316 25.6023L246.444 25.7655C246.629 26.0336 246.78 26.3251 246.861 26.6399C246.966 26.9664 247.024 27.3161 247.024 27.6659V28.0273L247.082 28.004ZM267.579 30.0443H255.353C255.353 27.3394 255.376 24.7162 255.422 22.1629V16.4733C255.422 16.1818 255.295 15.902 255.097 15.6921C254.657 15.2957 253.984 15.2957 253.543 15.6921C253.323 15.902 253.207 16.1935 253.207 16.4966V22.3261C253.207 25.1359 253.207 28.004 253.137 30.9537C253.079 31.2918 253.183 31.6416 253.404 31.8981C253.624 32.108 253.926 32.2246 254.227 32.2246H267.602C267.904 32.2246 268.182 32.0963 268.391 31.8748C268.588 31.6649 268.704 31.3851 268.704 31.0936C268.704 30.8022 268.588 30.5107 268.368 30.3125C268.147 30.1259 267.869 30.0327 267.579 30.0443ZM284.91 30.0327H273.634V26.4067H280.699C281 26.4067 281.279 26.2785 281.488 26.057C281.685 25.8471 281.812 25.5673 281.824 25.2758C281.824 24.6695 281.337 24.1799 280.733 24.1799H273.634V17.919H284.956C285.594 17.8607 286.058 17.2894 286 16.6482C285.977 16.4033 285.884 16.1818 285.722 15.9953C285.501 15.7971 285.223 15.6921 284.933 15.6921H272.555C272.265 15.6921 271.975 15.7854 271.755 15.9719C271.523 16.1585 271.395 16.45 271.395 16.7531V30.9421C271.384 31.1053 271.384 31.2802 271.395 31.4434C271.535 31.9564 272.033 32.2945 272.555 32.2246H284.817C285.118 32.2246 285.42 32.108 285.629 31.8864C285.826 31.6766 285.942 31.3968 285.942 31.1053C285.896 30.5457 285.466 30.091 284.91 30.0327Z" fill="white"/>
</svg>
